<?xml version="1.0" encoding="UTF-8"?>
<svg width="35px" height="50px" viewBox="0 0 35 50" version="1.1" xmlns="http://www.w3.org/2000/svg" xmlns:xlink="http://www.w3.org/1999/xlink">
    <!-- Generator: Sketch 49.3 (51167) - http://www.bohemiancoding.com/sketch -->
    <title>anonymous copy</title>
    <desc>Created with Sketch.</desc>
    <defs></defs>
    <g id="Site-1-agosto" stroke="none" stroke-width="1" fill="none" fill-rule="evenodd">
        <g id="Proteção-1---Privacidade-e-Sigilo" transform="translate(-104.000000, -1244.000000)" fill="#000000" fill-rule="nonzero">
            <g id="anonymous-copy" transform="translate(104.000000, 1244.000000)">
                <path d="M0.724655513,41.3043478 C1.67813966,41.3043478 1.70340836,39.8550725 0.724655513,39.8550725 C-0.254460909,39.8550725 -0.228555953,41.3043478 0.724655513,41.3043478 Z" id="Shape"></path>
                <path d="M27.1075857,28.2608696 L6.95038536,28.2608696 C3.11797772,28.2608696 0,31.376746 0,35.2065709 L0,37.6057446 C0,38.0403305 0.35258859,38.3926815 0.787467538,38.3926815 C1.22234649,38.3926815 1.57493508,38.0403305 1.57493508,37.6057446 L1.57493508,35.2065709 C1.57493508,32.2445406 3.98635754,29.8347433 6.95038536,29.8347433 L9.72463349,29.8347433 C8.38387158,30.780543 8.12459789,30.8569742 8.0757749,31.3273657 C8.05234774,31.553315 8.12764933,31.7782805 8.28248513,31.9446193 L11.9827951,35.9196341 L11.7163358,39.1143026 C11.6806044,39.5431832 11.9962805,39.9212079 12.4248597,39.9629156 L18.8007875,40.5823333 L18.8007875,48.4261263 L8.07154226,48.4261263 L8.07154226,37.9992131 C8.07154226,37.5646272 7.71895367,37.2122762 7.28407473,37.2122762 C6.84919578,37.2122762 6.49660719,37.5646272 6.49660719,37.9992131 L6.49660719,48.4261263 L1.77180196,48.4261263 C1.66322987,48.4261263 1.57493508,48.337891 1.57493508,48.2293921 L1.57493508,43.229097 C1.57493508,42.7945111 1.22234649,42.4421601 0.787467538,42.4421601 C0.35258859,42.4421601 1.39882335e-15,42.7945111 1.39882335e-15,43.229097 L1.39882335e-15,48.2293921 C1.39882335e-15,49.2056856 0.794850046,50 1.77180196,50 L32.2861691,50 C33.263121,50 34.057971,49.2056856 34.057971,48.2293921 L34.057971,35.2065709 C34.057971,31.376746 30.9399933,28.2608696 27.1075857,28.2608696 Z M20.3622372,29.8347433 L17.9820181,33.3233327 C17.7370173,33.6823726 17.8296431,34.1720441 18.1890236,34.4167814 C18.5481088,34.6615188 19.0383074,34.5691521 19.2832098,34.2099154 L22.0519456,30.1518788 L24.0085072,31.5320677 L20.6850004,35.1023018 C20.5340035,35.2645091 20.4584066,35.4828841 20.4768137,35.7036199 L20.7090182,38.4881959 L19.6833417,38.610663 L13.6957339,29.8347433 L20.3622372,29.8347433 Z M13.3503309,38.4714735 L13.5811573,35.7037183 C13.5995644,35.4829825 13.5239675,35.2646075 13.3729706,35.1024002 L10.0494639,31.532166 L12.0060254,30.1519772 L17.9897943,38.92229 L13.3503309,38.4714735 Z M32.4830359,48.2293921 C32.4830359,48.337891 32.3947411,48.4261263 32.2861691,48.4261263 L27.5613638,48.4261263 L27.5613638,37.9992131 C27.5613638,37.5646272 27.2087752,37.2122762 26.7738963,37.2122762 C26.3390173,37.2122762 25.9864288,37.5646272 25.9864288,37.9992131 L25.9864288,48.4261263 L20.3757225,48.4261263 L20.3757225,40.1131222 L21.6502388,39.9610466 C22.0712386,39.910781 22.3768744,39.5365926 22.3416353,39.1144009 L22.0751759,35.9197324 L25.7754859,31.9447177 C26.1002178,31.5956128 26.0423389,31.0404289 25.6530347,30.7657879 L24.3333375,29.8347433 L27.1075857,29.8347433 C30.0716135,29.8347433 32.4830359,32.2445406 32.4830359,35.2065709 L32.4830359,48.2293921 Z" id="Shape"></path>
                <path d="M16.0079051,44.2028986 L16.6007905,44.2028986 C17.0373518,44.2028986 17.3913043,43.878442 17.3913043,43.4782609 C17.3913043,43.0780797 17.0373518,42.7536232 16.6007905,42.7536232 L16.0079051,42.7536232 C15.5713439,42.7536232 15.2173913,43.0780797 15.2173913,43.4782609 C15.2173913,43.878442 15.5713439,44.2028986 16.0079051,44.2028986 Z" id="Shape"></path>
                <path d="M16.0079051,48.5507246 L16.6007905,48.5507246 C17.0373518,48.5507246 17.3913043,48.2262681 17.3913043,47.826087 C17.3913043,47.4259058 17.0373518,47.1014493 16.6007905,47.1014493 L16.0079051,47.1014493 C15.5713439,47.1014493 15.2173913,47.4259058 15.2173913,47.826087 C15.2173913,48.2262681 15.5713439,48.5507246 16.0079051,48.5507246 Z" id="Shape"></path>
                <path d="M3.68595727,13.8657622 L6.7344409,13.8657622 L6.7344409,17.6889043 C6.7344409,23.0447991 11.0965259,27.5362319 16.6815446,27.5362319 C22.1499342,27.5362319 26.5987535,23.1187172 26.5987535,17.6888067 L26.5987535,13.8657622 L29.6472371,13.8657622 C30.3509452,13.8657622 30.7011274,13.0134084 30.1962592,12.5251773 L26.5987535,9.04448042 L26.5987535,3.1246788 C26.5987535,1.40171138 25.1871089,0 23.4519317,0 L20.0042934,0 C19.1636987,0 18.373453,0.324966595 17.7790971,0.915140302 C17.1656635,1.52425737 16.1674326,1.52425737 15.553999,0.915140302 C14.9597414,0.324966595 14.1693974,0 13.328901,0 L9.8812627,0 C8.14608549,0 6.7344409,1.40171138 6.7344409,3.1246788 L6.7344409,9.04448042 L3.13693521,12.5251773 C2.63295203,13.0126272 2.98106919,13.8657622 3.68595727,13.8657622 Z M25.0253426,17.6888067 C25.0253426,22.2025028 21.3501498,25.9738925 16.6515515,25.9738925 C12.050898,25.9738925 8.3078518,22.2572824 8.3078518,17.6889043 L8.3078518,13.8657622 L9.09455725,13.8657622 L9.09455725,16.6242677 C9.09455725,17.91642 10.1533644,18.9677767 11.4546736,18.9677767 L14.8965099,18.9677767 C15.1508125,18.9677767 15.3894793,18.845719 15.5371832,18.6400761 L16.6665972,17.0668003 L17.7960112,18.6399784 C17.9437152,18.8456213 18.1823819,18.9676791 18.4366845,18.9676791 L21.7801826,18.9676791 C23.0814918,18.9676791 24.140299,17.9163223 24.140299,16.62417 L24.140299,13.8657622 L25.0253426,13.8657622 L25.0253426,17.6888067 Z M22.5668881,13.8657622 L22.5668881,16.6242677 C22.5668881,17.0549851 22.2139524,17.4054374 21.7801826,17.4054374 L18.8420345,17.4054374 L17.3072705,15.2675712 C16.9937683,14.8308973 16.3395244,14.830995 16.0260223,15.2675712 L14.4912583,17.4054374 L11.4546736,17.4054374 C11.0209039,17.4054374 10.6679681,17.0549851 10.6679681,16.6242677 L10.6679681,13.8657622 L22.5668881,13.8657622 Z M7.84104045,10.1552061 L18.8300372,10.1552061 C19.2644953,10.1552061 19.6167427,9.80543735 19.6167427,9.37403639 C19.6167427,8.94263542 19.2644953,8.59286669 18.8300372,8.59286669 L8.3078518,8.59286669 L8.3078518,3.1246788 C8.3078518,2.26324391 9.01372326,1.5623394 9.8812627,1.5623394 L13.328901,1.5623394 C13.7491984,1.5623394 14.1443212,1.7248227 14.4414008,2.02000719 C15.6715132,3.24126837 17.6616813,3.24126837 18.8917936,2.02000719 C19.1888732,1.72492034 19.583996,1.5623394 20.0042934,1.5623394 L23.4519317,1.5623394 C24.3194712,1.5623394 25.0253426,2.26324391 25.0253426,3.1246788 L25.0253426,8.59286669 L22.1735354,8.59286669 C21.7390773,8.59286669 21.3868299,8.94263542 21.3868299,9.37403639 C21.3868299,9.80543735 21.7390773,10.1552061 22.1735354,10.1552061 L25.492154,10.1552061 L27.7125318,12.3034228 L5.62066265,12.3034228 L7.84104045,10.1552061 Z" id="Shape"></path>
            </g>
        </g>
    </g>
</svg>