<?xml version="1.0" encoding="UTF-8"?>
<svg width="40px" height="40px" viewBox="0 0 40 40" version="1.1" xmlns="http://www.w3.org/2000/svg" xmlns:xlink="http://www.w3.org/1999/xlink">
    <!-- Generator: Sketch 49.3 (51167) - http://www.bohemiancoding.com/sketch -->
    <title>building</title>
    <desc>Created with Sketch.</desc>
    <defs></defs>
    <g id="Site-1-agosto" stroke="none" stroke-width="1" fill="none" fill-rule="evenodd">
        <g id="Oportunidades-4" transform="translate(-644.000000, -537.000000)" fill="#000000" fill-rule="nonzero">
            <g id="building" transform="translate(644.000000, 537.000000)">
                <path d="M39.3333333,38.6666667 L35.3333333,38.6666667 L35.3333333,16.6666667 C35.3333333,16.2985 35.0348333,16 34.6666667,16 L25.3333333,16 L25.3333333,0.666666667 C25.3333333,0.2985 25.0348333,0 24.6666667,0 L7.33333333,0 C6.96516667,0 6.66666667,0.2985 6.66666667,0.666666667 L6.66666667,38.6666667 L0.666666667,38.6666667 C0.2985,38.6666667 0,38.9651667 0,39.3333333 C0,39.7015 0.2985,40 0.666666667,40 L39.3333333,40 C39.7015,40 40,39.7015 40,39.3333333 C40,38.9651667 39.7015,38.6666667 39.3333333,38.6666667 Z M14,38.6666667 L11.3333333,38.6666667 L11.3333333,32.6666667 C11.3333333,32.2985 11.6318333,32 12,32 L13.3333333,32 C13.7015,32 14,32.2985 14,32.6666667 L14,38.6666667 Z M16.6666667,16.6666667 L16.6666667,38.6666667 L15.3333333,38.6666667 L15.3333333,32.6666667 C15.3333333,31.5620833 14.4379167,30.6666667 13.3333333,30.6666667 L12,30.6666667 C10.8954167,30.6666667 10,31.5620833 10,32.6666667 L10,38.6666667 L8,38.6666667 L8,1.33333333 L24,1.33333333 L24,16 L17.3333333,16 C16.9651667,16 16.6666667,16.2985 16.6666667,16.6666667 Z M34,38.6666667 L18,38.6666667 L18,17.3333333 L34,17.3333333 L34,38.6666667 Z" id="Shape"></path>
                <path d="M21.3333333,9.33333333 L17.3333333,9.33333333 C16.9651667,9.33333333 16.6666667,9.63183333 16.6666667,10 L16.6666667,14 C16.6666667,14.3681667 16.9651667,14.6666667 17.3333333,14.6666667 L21.3333333,14.6666667 C21.7015,14.6666667 22,14.3681667 22,14 L22,10 C22,9.63183333 21.7015,9.33333333 21.3333333,9.33333333 Z M20.6666667,13.3333333 L18,13.3333333 L18,10.6666667 L20.6666667,10.6666667 L20.6666667,13.3333333 Z" id="Shape"></path>
                <path d="M21.3333333,2.66666667 L17.3333333,2.66666667 C16.9651667,2.66666667 16.6666667,2.96516667 16.6666667,3.33333333 L16.6666667,7.33333333 C16.6666667,7.7015 16.9651667,8 17.3333333,8 L21.3333333,8 C21.7015,8 22,7.7015 22,7.33333333 L22,3.33333333 C22,2.96516667 21.7015,2.66666667 21.3333333,2.66666667 Z M20.6666667,6.66666667 L18,6.66666667 L18,4 L20.6666667,4 L20.6666667,6.66666667 Z" id="Shape"></path>
                <path d="M14.6666667,9.33333333 L10.6666667,9.33333333 C10.2985,9.33333333 10,9.63183333 10,10 L10,14 C10,14.3681667 10.2985,14.6666667 10.6666667,14.6666667 L14.6666667,14.6666667 C15.0348333,14.6666667 15.3333333,14.3681667 15.3333333,14 L15.3333333,10 C15.3333333,9.63183333 15.0348333,9.33333333 14.6666667,9.33333333 Z M14,13.3333333 L11.3333333,13.3333333 L11.3333333,10.6666667 L14,10.6666667 L14,13.3333333 Z" id="Shape"></path>
                <path d="M14.6666667,2.66666667 L10.6666667,2.66666667 C10.2985,2.66666667 10,2.96516667 10,3.33333333 L10,7.33333333 C10,7.7015 10.2985,8 10.6666667,8 L14.6666667,8 C15.0348333,8 15.3333333,7.7015 15.3333333,7.33333333 L15.3333333,3.33333333 C15.3333333,2.96516667 15.0348333,2.66666667 14.6666667,2.66666667 Z M14,6.66666667 L11.3333333,6.66666667 L11.3333333,4 L14,4 L14,6.66666667 Z" id="Shape"></path>
                <path d="M14.6666667,16 L10.6666667,16 C10.2985,16 10,16.2985 10,16.6666667 L10,20.6666667 C10,21.0348333 10.2985,21.3333333 10.6666667,21.3333333 L14.6666667,21.3333333 C15.0348333,21.3333333 15.3333333,21.0348333 15.3333333,20.6666667 L15.3333333,16.6666667 C15.3333333,16.2985 15.0348333,16 14.6666667,16 Z M14,20 L11.3333333,20 L11.3333333,17.3333333 L14,17.3333333 L14,20 Z" id="Shape"></path>
                <path d="M14.6666667,22.6666667 L10.6666667,22.6666667 C10.2985,22.6666667 10,22.9651667 10,23.3333333 L10,27.3333333 C10,27.7015 10.2985,28 10.6666667,28 L14.6666667,28 C15.0348333,28 15.3333333,27.7015 15.3333333,27.3333333 L15.3333333,23.3333333 C15.3333333,22.9651667 15.0348333,22.6666667 14.6666667,22.6666667 Z M14,26.6666667 L11.3333333,26.6666667 L11.3333333,24 L14,24 L14,26.6666667 Z" id="Shape"></path>
                <path d="M27.3333333,30.6666667 L31.3333333,30.6666667 C31.7015,30.6666667 32,30.3681667 32,30 L32,26 C32,25.6318333 31.7015,25.3333333 31.3333333,25.3333333 L27.3333333,25.3333333 C26.9651667,25.3333333 26.6666667,25.6318333 26.6666667,26 L26.6666667,30 C26.6666667,30.3681667 26.9651667,30.6666667 27.3333333,30.6666667 Z M28,26.6666667 L30.6666667,26.6666667 L30.6666667,29.3333333 L28,29.3333333 L28,26.6666667 Z" id="Shape"></path>
                <path d="M27.3333333,24 L31.3333333,24 C31.7015,24 32,23.7015 32,23.3333333 L32,19.3333333 C32,18.9651667 31.7015,18.6666667 31.3333333,18.6666667 L27.3333333,18.6666667 C26.9651667,18.6666667 26.6666667,18.9651667 26.6666667,19.3333333 L26.6666667,23.3333333 C26.6666667,23.7015 26.9651667,24 27.3333333,24 Z M28,20 L30.6666667,20 L30.6666667,22.6666667 L28,22.6666667 L28,20 Z" id="Shape"></path>
                <path d="M27.3333333,37.3333333 L31.3333333,37.3333333 C31.7015,37.3333333 32,37.0348333 32,36.6666667 L32,32.6666667 C32,32.2985 31.7015,32 31.3333333,32 L27.3333333,32 C26.9651667,32 26.6666667,32.2985 26.6666667,32.6666667 L26.6666667,36.6666667 C26.6666667,37.0348333 26.9651667,37.3333333 27.3333333,37.3333333 Z M28,33.3333333 L30.6666667,33.3333333 L30.6666667,36 L28,36 L28,33.3333333 Z" id="Shape"></path>
                <path d="M20.6666667,30.6666667 L24.6666667,30.6666667 C25.0348333,30.6666667 25.3333333,30.3681667 25.3333333,30 L25.3333333,26 C25.3333333,25.6318333 25.0348333,25.3333333 24.6666667,25.3333333 L20.6666667,25.3333333 C20.2985,25.3333333 20,25.6318333 20,26 L20,30 C20,30.3681667 20.2985,30.6666667 20.6666667,30.6666667 Z M21.3333333,26.6666667 L24,26.6666667 L24,29.3333333 L21.3333333,29.3333333 L21.3333333,26.6666667 Z" id="Shape"></path>
                <path d="M20.6666667,24 L24.6666667,24 C25.0348333,24 25.3333333,23.7015 25.3333333,23.3333333 L25.3333333,19.3333333 C25.3333333,18.9651667 25.0348333,18.6666667 24.6666667,18.6666667 L20.6666667,18.6666667 C20.2985,18.6666667 20,18.9651667 20,19.3333333 L20,23.3333333 C20,23.7015 20.2985,24 20.6666667,24 Z M21.3333333,20 L24,20 L24,22.6666667 L21.3333333,22.6666667 L21.3333333,20 Z" id="Shape"></path>
                <path d="M20.6666667,37.3333333 L24.6666667,37.3333333 C25.0348333,37.3333333 25.3333333,37.0348333 25.3333333,36.6666667 L25.3333333,32.6666667 C25.3333333,32.2985 25.0348333,32 24.6666667,32 L20.6666667,32 C20.2985,32 20,32.2985 20,32.6666667 L20,36.6666667 C20,37.0348333 20.2985,37.3333333 20.6666667,37.3333333 Z M21.3333333,33.3333333 L24,33.3333333 L24,36 L21.3333333,36 L21.3333333,33.3333333 Z" id="Shape"></path>
            </g>
        </g>
    </g>
</svg>