<?xml version="1.0" encoding="UTF-8"?>
<svg width="26px" height="50px" viewBox="0 0 26 50" version="1.1" xmlns="http://www.w3.org/2000/svg" xmlns:xlink="http://www.w3.org/1999/xlink">
    <!-- Generator: Sketch 49.3 (51167) - http://www.bohemiancoding.com/sketch -->
    <title>chess</title>
    <desc>Created with Sketch.</desc>
    <defs></defs>
    <g id="Site-1-agosto" stroke="none" stroke-width="1" fill="none" fill-rule="evenodd">
        <g id="Homepage" transform="translate(-708.000000, -1122.000000)" fill="#000000" fill-rule="nonzero">
            <g id="chess" transform="translate(708.000000, 1122.000000)">
                <path d="M24.19625,45.2548387 C24.4538073,44.6278477 24.432156,43.9219798 24.1366477,43.3117015 C23.8411394,42.7014232 23.2993486,42.2436809 22.6451875,42.0516129 L18.83375,19.3548387 L20.3125,19.3548387 C21.3976574,19.3573433 22.3532551,18.646143 22.6549057,17.6115113 C22.9565564,16.5768796 22.531301,15.4690582 21.6125,14.8959677 C21.823077,14.5353809 21.9351082,14.1264534 21.9375,13.7096774 C21.9366972,12.743307 21.3565846,11.8701037 20.462,11.4887097 L22.732125,0.975 C22.7833935,0.736899408 22.7235391,0.488553925 22.5692625,0.299257497 C22.4149859,0.109961069 22.1828037,-2.0539829e-05 21.9375,-1.02104705e-14 L17.875,-1.02104705e-14 C17.4262686,-1.03000046e-14 17.0625,0.361060686 17.0625,0.806451613 L17.0625,2.41935484 L15.4375,2.41935484 L15.4375,0.806451613 C15.4375,0.361060686 15.0737314,-1.0658141e-14 14.625,-1.0658141e-14 L11.375,-1.0658141e-14 C10.9262686,-1.0658141e-14 10.5625,0.361060686 10.5625,0.806451613 L10.5625,2.41935484 L8.9375,2.41935484 L8.9375,0.806451613 C8.9375,0.361060686 8.57373136,-1.0658141e-14 8.125,-1.0658141e-14 L4.0625,-1.0658141e-14 C3.81719628,-2.0539829e-05 3.58501411,0.109961069 3.43073753,0.299257497 C3.27646094,0.488553925 3.21660652,0.736899408 3.267875,0.975 L5.538,11.4887097 C4.6434154,11.8701037 4.06330276,12.743307 4.0625,13.7096774 C4.06489183,14.1264534 4.17692295,14.5353809 4.3875,14.8959677 C3.46869896,15.4690582 3.04344365,16.5768796 3.34509427,17.6115113 C3.6467449,18.646143 4.60234257,19.3573433 5.6875,19.3548387 L7.16625,19.3548387 L3.3548125,42.0516129 C2.7006514,42.2436809 2.15886057,42.7014232 1.86335228,43.3117015 C1.56784399,43.9219798 1.54619275,44.6278477 1.80375,45.2548387 C0.624191239,45.568566 -0.138017856,46.7019159 0.0224605738,47.9034876 C0.182939004,49.1050592 1.21632807,50.0021514 2.4375,50 L23.5625,50 C24.7836719,50.0021514 25.817061,49.1050592 25.9775394,47.9034876 C26.1380179,46.7019159 25.3758088,45.568566 24.19625,45.2548387 Z M5.6875,13.7096774 C5.6875,13.2642865 6.05126864,12.9032258 6.5,12.9032258 L19.5,12.9032258 C19.9487314,12.9032258 20.3125,13.2642865 20.3125,13.7096774 C20.3125,14.1550683 19.9487314,14.516129 19.5,14.516129 L6.5,14.516129 C6.05126864,14.516129 5.6875,14.1550683 5.6875,13.7096774 Z M7.3125,1.61290323 L7.3125,3.22580645 C7.3125,3.67119738 7.67626864,4.03225806 8.125,4.03225806 L11.375,4.03225806 C11.8237314,4.03225806 12.1875,3.67119738 12.1875,3.22580645 L12.1875,1.61290323 L13.8125,1.61290323 L13.8125,3.22580645 C13.8125,3.67119738 14.1762686,4.03225806 14.625,4.03225806 L17.875,4.03225806 C18.3237314,4.03225806 18.6875,3.67119738 18.6875,3.22580645 L18.6875,1.61290323 L20.9324375,1.61290323 L18.8426875,11.2903226 L7.1573125,11.2903226 L5.0675625,1.61290323 L7.3125,1.61290323 Z M4.875,16.9354839 C4.875,16.4900929 5.23876864,16.1290323 5.6875,16.1290323 L20.3125,16.1290323 C20.7612314,16.1290323 21.125,16.4900929 21.125,16.9354839 C21.125,17.3808748 20.7612314,17.7419355 20.3125,17.7419355 L5.6875,17.7419355 C5.23876864,17.7419355 4.875,17.3808748 4.875,16.9354839 Z M8.8131875,19.3548387 L17.1868125,19.3548387 L20.9779375,41.9354839 L5.0220625,41.9354839 L8.8131875,19.3548387 Z M4.0625,43.5483871 L21.9375,43.5483871 C22.3862314,43.5483871 22.75,43.9094478 22.75,44.3548387 C22.75,44.8002296 22.3862314,45.1612903 21.9375,45.1612903 L4.0625,45.1612903 C3.61376864,45.1612903 3.25,44.8002296 3.25,44.3548387 C3.25,43.9094478 3.61376864,43.5483871 4.0625,43.5483871 Z M23.5625,48.3870968 L2.4375,48.3870968 C1.98876864,48.3870968 1.625,48.0260361 1.625,47.5806452 C1.625,47.1352542 1.98876864,46.7741935 2.4375,46.7741935 L23.5625,46.7741935 C24.0112314,46.7741935 24.375,47.1352542 24.375,47.5806452 C24.375,48.0260361 24.0112314,48.3870968 23.5625,48.3870968 Z" id="Shape"></path>
                <path d="M16.25,39.516129 L9.75,39.516129 C9.30126864,39.516129 8.9375,39.8771897 8.9375,40.3225806 C8.9375,40.7679716 9.30126864,41.1290323 9.75,41.1290323 L16.25,41.1290323 C16.6987314,41.1290323 17.0625,40.7679716 17.0625,40.3225806 C17.0625,39.8771897 16.6987314,39.516129 16.25,39.516129 Z" id="Shape"></path>
                <path d="M19.5,39.516129 L18.6875,39.516129 C18.2387686,39.516129 17.875,39.8771897 17.875,40.3225806 C17.875,40.7679716 18.2387686,41.1290323 18.6875,41.1290323 L19.5,41.1290323 C19.9487314,41.1290323 20.3125,40.7679716 20.3125,40.3225806 C20.3125,39.8771897 19.9487314,39.516129 19.5,39.516129 Z" id="Shape"></path>
            </g>
        </g>
    </g>
</svg>