<?xml version="1.0" encoding="UTF-8"?>
<svg width="50px" height="39px" viewBox="0 0 50 39" version="1.1" xmlns="http://www.w3.org/2000/svg" xmlns:xlink="http://www.w3.org/1999/xlink">
    <!-- Generator: Sketch 49.3 (51167) - http://www.bohemiancoding.com/sketch -->
    <title>family copy</title>
    <desc>Created with Sketch.</desc>
    <defs></defs>
    <g id="Site-1-agosto" stroke="none" stroke-width="1" fill="none" fill-rule="evenodd">
        <g id="Proteção-2---Sucessão-e-Herança" transform="translate(-104.000000, -1260.000000)" fill="#000000" fill-rule="nonzero">
            <g id="family-copy" transform="translate(104.000000, 1260.000000)">
                <path d="M45.3041016,22.637207 C45.2495117,22.4786133 45.1408203,22.3376953 44.9851562,22.2456055 L43.0074219,21.0753906 C43.5621094,20.8208008 44.0797852,20.4899414 44.5462891,20.0908203 C44.6566406,20.5404297 45.0261719,20.8863281 45.5055664,20.9539062 C46.0796875,21.0350586 46.6141602,20.6898437 46.7762695,20.1333008 C47.4568359,17.796875 48.2666016,14.3237305 48.259375,11.0457031 C48.2584961,10.6416992 47.9307617,10.3149414 47.5269531,10.3149414 C47.5263672,10.3149414 47.5257812,10.3149414 47.525293,10.3149414 C47.1208008,10.3158203 46.7935547,10.6444336 46.7945312,11.0490234 C46.7994141,13.2776367 46.3998047,15.6211914 45.9320312,17.5963867 C45.7084961,11.9207031 44.7064453,11.1107422 44.3521484,10.8243164 C42.7021484,9.49111328 40.8234375,7.09785156 40.8045898,7.07392578 C40.6317383,6.85283203 40.3477539,6.74990234 40.0736328,6.80898437 C39.9295898,6.83994141 36.5326172,7.61113281 35.2950195,11.3933594 C34.8375,12.7913086 34.6655273,15.4186523 34.6150391,17.8928711 C33.6575195,14.2433594 32.7024414,8.54716797 34.9427734,5.484375 C36.0394531,3.98515625 37.7681641,3.25644531 40.2275391,3.25644531 C43.7038086,3.25644531 45.7529297,4.83583984 46.4918945,8.08476562 C46.581543,8.47919922 46.9736328,8.72597656 47.3685547,8.63652344 C47.7629883,8.54677734 48.0099609,8.15429687 47.9202148,7.75986328 C47.0321289,3.85537109 44.3720703,1.79150391 40.2275391,1.79150391 C37.3089844,1.79150391 35.1331055,2.74296875 33.7604492,4.61953125 C30.7537109,8.72978516 32.4984375,16.2473633 33.8060547,20.362793 C33.9612305,20.8510742 34.4060547,21.1685547 34.9030273,21.1685547 C34.9633789,21.1685547 35.0245117,21.1638672 35.0860352,21.1542969 C35.5885742,21.0754883 35.9675781,20.6889648 36.046875,20.2026367 C36.4543945,20.5331055 36.8952148,20.8118164 37.3613281,21.034668 L37.3613281,21.0673828 L35.3701172,22.2456055 C35.2143555,22.337793 35.1056641,22.4788086 35.0510742,22.6375 C32.9689453,23.6481445 31.4103516,25.4757812 30.7314453,27.659668 C29.7826172,26.8558594 28.634082,26.3495117 27.4042969,26.1896484 L27.4042969,25.556543 C28.5091797,24.9515625 29.3799805,23.9480469 29.7958008,22.7253906 C30.7111328,22.5588867 31.1946289,21.8987305 31.3926758,21.378418 C32.4027344,20.5508789 32.2650391,18.9982422 31.9585937,18.0056641 C32.319043,16.9067383 32.2875977,15.8802734 31.8641602,14.9511719 C31.2444336,13.5910156 29.9515625,12.8662109 29.3966797,12.6073242 C28.3395508,10.9931641 25.6318359,11.2010742 24.9999023,11.2737305 C24.3680664,11.2009766 21.6592773,10.9932617 20.6021484,12.6073242 C20.1583984,12.8145508 19.2429687,13.3209961 18.5771484,14.2113281 C18.609375,14.0611328 18.6270508,13.9068359 18.6258789,13.7495117 L18.6170898,12.5451172 C18.6105469,11.697168 18.1008789,10.9701172 17.3744141,10.6414062 C17.8040039,9.64228516 17.694043,8.75214844 17.5185547,7.34980469 C17.4842773,7.07597656 17.446875,6.77705078 17.4094727,6.44736328 C17.2316406,4.87412109 16.0938477,3.69960937 15.1706055,2.99121094 C14.8176758,2.72060547 14.4927734,2.38291016 14.1771484,1.95859375 C12.7014648,-0.0237304688 10.3633789,-0.005859375 9.36474609,0.00341796875 L9.31152344,0.00380859375 C8.35273437,0.0109375 6.20722656,0.667480469 5.29423828,2.61191406 C4.07705078,2.93740234 3.08994141,3.74355469 2.42255859,4.96347656 C1.55537109,6.54873047 1.37324219,8.65878906 1.75253906,9.56142578 C1.79492187,9.66220703 1.88330078,9.94316406 1.99794922,10.6868164 C1.31914062,11.0364258 0.86015625,11.7414062 0.853515625,12.5454102 L0.844726562,13.7492187 C0.840429687,14.3124023 1.05566406,14.8433594 1.45097656,15.2446289 C1.84599609,15.6455078 2.37373047,15.8688477 2.93710937,15.8731445 L3.26367187,15.8754883 C3.69228516,17.9676758 5.12099609,19.7024414 7.02246094,20.5592773 L7.02246094,21.0672852 L5.03105469,22.2456055 C4.878125,22.3361328 4.77021484,22.4736328 4.71464844,22.6289062 C4.33232422,22.8134766 3.96328125,23.0267578 3.61318359,23.2678711 C3.27998047,23.4972656 3.19580078,23.9533203 3.42519531,24.2865234 C3.56728516,24.4928711 3.79619141,24.6037109 4.02919922,24.6037109 C4.17236328,24.6037109 4.31699219,24.5617187 4.44384766,24.4745117 C4.69355469,24.3026367 4.95566406,24.149707 5.22548828,24.0125 L7.01992187,27.0454102 C7.12382812,27.2210937 7.29648437,27.3454102 7.49599609,27.3884766 C7.54716797,27.3994141 7.59882812,27.4048828 7.65029297,27.4048828 C7.79960937,27.4048828 7.946875,27.3591797 8.07109375,27.2719727 L8.13720703,27.2255859 L8.24482422,27.7290039 L7.69375,33.5986328 C7.67705078,33.7773437 7.72636719,33.9558594 7.83261719,34.1005859 L9.24863281,36.0292969 C9.38662109,36.2172852 9.60585937,36.3283203 9.83896484,36.3283203 C10.0720703,36.3283203 10.2914062,36.2172852 10.4292969,36.0292969 L11.8453125,34.1005859 C11.9515625,33.955957 12.0008789,33.7773437 11.9841797,33.5986328 L11.428125,27.675 L11.5262695,27.2158203 L11.60625,27.2719727 C11.7304687,27.3592773 11.8777344,27.4048828 12.0270508,27.4048828 C12.0785156,27.4048828 12.1302734,27.3994141 12.1813477,27.3884766 C12.3808594,27.3455078 12.5535156,27.2210937 12.6574219,27.0454102 L14.4451172,24.0237305 C16.3648437,25.0080078 17.7202148,26.8455078 18.0817383,28.9810547 C17.3621094,30.0423828 16.9737305,31.2932617 16.9737305,32.6015625 L16.9737305,36.71875 L1.46484375,36.71875 L1.46484375,30.1376953 C1.46484375,28.8457031 1.825,27.5871094 2.50644531,26.4980469 C2.72099609,26.1550781 2.61699219,25.703125 2.27402344,25.4885742 C1.93115234,25.2742187 1.47919922,25.3780273 1.26464844,25.7209961 C0.437304687,27.0433594 0,28.5706055 0,30.1376953 L0,37.4511719 C0,37.8557617 0.327929688,38.1835937 0.732421875,38.1835937 L49.2675781,38.1835937 C49.6720703,38.1835937 50,37.8557617 50,37.4511719 L50,30.1376953 C50,26.9081055 48.1751953,24.0251953 45.3041016,22.637207 Z M43.6087891,23.1333984 L42.1387695,25.6179687 L41.1895508,24.9516602 L42.7674805,22.6355469 L43.6087891,23.1333984 Z M40.1776367,23.8353516 L38.8261719,21.8516602 L38.8261719,21.5318359 C39.2818359,21.6291016 39.7505859,21.6805664 40.2275391,21.6805664 C40.6701172,21.6805664 41.1055664,21.6368164 41.5292969,21.553125 L41.5292969,21.8513672 L40.1776367,23.8353516 Z M36.559082,18.6959961 C36.3842773,18.5213867 36.2224609,18.334082 36.0754883,18.1375 C36.1282227,15.1106445 36.3400391,12.9099609 36.6873047,11.8488281 C37.4361328,9.56015625 39.1689453,8.66884766 39.9678711,8.37070312 C40.597168,9.13964844 42.0552734,10.8515625 43.431543,11.9636719 C43.5293945,12.0427734 44.3144531,12.8375 44.4808594,17.9955078 C43.5081055,19.3887695 41.9350586,20.2158203 40.2276367,20.2158203 C38.8419922,20.2158203 37.5390625,19.6760742 36.559082,18.6959961 Z M37.5876953,22.6355469 L39.1657227,24.9516602 L38.2164063,25.6179687 L36.7463867,23.1333984 L37.5876953,22.6355469 Z M25.0117188,24.7167969 L24.9794922,24.7167969 C23.4205078,24.7167969 22.0364258,23.7015625 21.547168,22.252832 C21.646875,22.0891602 21.7012695,21.9015625 21.7012695,21.7048828 L21.7012695,20.5390625 C22.1610352,20.3259766 22.7722656,19.9033203 23.1494141,19.0870117 C23.6207031,19.2769531 24.2580078,19.453125 25.0000977,19.453125 C25.7416992,19.453125 26.3786133,19.2769531 26.8498047,19.0871094 C27.2268555,19.9033203 27.8380859,20.3260742 28.2979492,20.5390625 L28.2979492,21.7048828 C28.2979492,21.8834961 28.3419922,22.0551758 28.424707,22.2078125 C27.9512695,23.6689453 26.568457,24.7042969 25.0117188,24.7167969 Z M24.0605469,26.0961914 C24.3599609,26.1518555 24.6671875,26.1816406 24.9794922,26.1816406 L25.0175781,26.1816406 C25.3310547,26.1791016 25.6391602,26.1464844 25.9394531,26.0876953 L25.9394531,26.9512695 C25.9394531,27.4692383 25.5180664,27.890625 25,27.890625 C24.4819336,27.890625 24.0605469,27.4692383 24.0605469,26.9512695 L24.0605469,26.0961914 Z M19.4648438,15.5666016 C19.9895508,14.4030273 21.3576172,13.875 21.36875,13.8707031 C21.5450195,13.8057617 21.6896484,13.6753906 21.7725586,13.5067383 C22.2195313,12.5976562 24.2323242,12.6479492 24.9010742,12.7374023 C24.9661133,12.7462891 25.0331055,12.7461914 25.0980469,12.7375 C25.7675781,12.6480469 27.7795898,12.5975586 28.2266602,13.5067383 C28.309668,13.6753906 28.4541992,13.8057617 28.6305664,13.8708008 C28.6441406,13.8757812 30.0056641,14.4046875 30.5313477,15.5584961 C30.8193359,16.1905273 30.8083984,16.9248047 30.4988281,17.7413086 C30.4356445,17.9079102 30.4353516,18.0917969 30.4980469,18.2584961 C30.6183594,18.5789062 30.9774414,19.9487305 30.390332,20.2967773 C30.2082031,20.4045898 30.0817383,20.5861328 30.043457,20.7943359 C30.0369141,20.8298828 29.9870117,21.0578125 29.762793,21.1952148 L29.762793,20.0195312 C29.762793,19.653418 29.5152344,19.3470703 29.1532227,19.2972656 C29.0305664,19.2714844 28.2049805,19.0564453 28.0134766,17.9130859 C27.9714844,17.6625 27.8025391,17.4513672 27.5670898,17.3556641 C27.331543,17.2598633 27.0633789,17.2931641 26.8583984,17.4431641 C26.8509766,17.4486328 26.0837891,17.9881836 25.0000977,17.9881836 C23.9192383,17.9881836 23.1446289,17.4458008 23.1408203,17.4431641 C22.9358398,17.2929687 22.6675781,17.2597656 22.4321289,17.3556641 C22.1966797,17.4513672 22.0277344,17.6625 21.9857422,17.9130859 C21.7942383,19.0564453 20.96875,19.2714844 20.8459961,19.2972656 C20.4839844,19.3470703 20.2364258,19.6533203 20.2364258,20.0195312 L20.2364258,21.1945312 C20.0484375,21.077832 19.9795898,20.8925781 19.9549805,20.7889648 C19.9220703,20.5724609 19.7978516,20.4086914 19.6088867,20.2967773 C19.0225586,19.9491211 19.3759766,18.5994141 19.5020508,18.2587891 C19.5648437,18.0919922 19.5645508,17.9080078 19.5013672,17.7413086 C19.1930664,16.928418 19.1807617,16.1966797 19.4648438,15.5666016 Z M16.9958008,12.2546875 C16.9985352,12.21875 17.0015625,12.1852539 17.0044922,12.1510742 C17.0957031,12.2611328 17.1511719,12.4020508 17.1523438,12.5560547 L17.1611328,13.7604492 C17.1625,13.9322266 17.096875,14.094043 16.9763672,14.2164062 C16.8557617,14.3387695 16.6946289,14.4068359 16.5226563,14.4082031 L16.2844727,14.4100586 L16.2761719,13.2851562 C16.6732422,13.099707 16.9615234,12.7121094 16.9958008,12.2546875 Z M2.94794922,14.4081055 C2.77607422,14.4068359 2.61494141,14.3387695 2.49433594,14.2164062 C2.37382813,14.094043 2.30820313,13.9322266 2.30957031,13.7601562 L2.31679688,12.7724609 C2.47060547,13.1060547 2.76445313,13.3554687 3.12158203,13.4509766 L3.12841797,14.409375 L2.94794922,14.4081055 Z M3.64492188,11.9990234 C3.64355469,11.9994141 3.64208984,11.999707 3.64072266,12.0000977 C3.41933594,9.92792969 3.22851563,9.29130859 3.10302734,8.99326172 C2.94970703,8.62880859 2.97207031,7.01152344 3.7078125,5.66640625 C4.23369141,4.70517578 4.98847656,4.13300781 5.95107422,3.96582031 C6.21201172,3.92041016 6.42822266,3.73779297 6.51640625,3.48798828 C7.04589844,1.98857422 8.66513672,1.47333984 9.32255859,1.46845703 L9.37685547,1.46796875 C9.44658203,1.46738281 9.52070312,1.46679687 9.59902344,1.46679687 C10.5387695,1.46679687 12.0498047,1.55361328 13.0021484,2.8328125 C13.399707,3.36738281 13.8175781,3.79931641 14.2793945,4.15332031 C14.8505859,4.59160156 15.8277344,5.49375 15.9541992,6.61201172 C15.9923828,6.94804687 16.0303711,7.25263672 16.065332,7.53144531 C16.2415039,8.93925781 16.3143555,9.52207031 15.9518555,10.2283203 C15.9518555,10.228418 15.9517578,10.2285156 15.9517578,10.2286133 C15.84375,10.4391602 15.75625,10.7057617 15.6867187,11.0287109 C15.6848633,11.0373047 15.6828125,11.0458008 15.68125,11.0544922 C15.6271484,11.3118164 15.584082,11.603418 15.5527344,11.9362305 C15.2091797,11.9079102 14.9322266,11.6389648 14.8959961,11.2868164 C14.5881836,8.2859375 13.762793,6.68222656 12.4425781,6.51992187 C11.6512695,6.42304687 10.9810547,6.19433594 10.2714844,5.95224609 C9.44980469,5.67197266 8.60029297,5.38203125 7.59121094,5.33017578 C6.93212891,5.29453125 5.99433594,6.05458984 5.56240234,7.38496094 C5.38378906,7.93496094 5.09375,8.49267578 4.67587891,9.08964844 C4.34726563,9.55898437 4.18554688,10.2506836 4.15166016,11.3324219 C4.14160156,11.6501953 3.93144531,11.9126953 3.64492188,11.9990234 Z M4.59472656,14.5973633 L4.58447266,13.1682617 C5.18535156,12.7961914 5.59179688,12.1402344 5.61572266,11.3786133 C5.64658203,10.3974609 5.79199219,10.05 5.87597656,9.92998047 C6.37841797,9.21210937 6.73154297,8.52783203 6.95566406,7.83759766 C7.16425781,7.1953125 7.49130859,6.89169922 7.63125,6.80068359 C8.39023438,6.85839844 9.07529297,7.09208984 9.79853516,7.33886719 C10.5476562,7.59453125 11.3223633,7.85878906 12.2643555,7.97421875 C12.5851563,8.01357422 13.187793,8.98847656 13.4388672,11.4367187 C13.525293,12.2785156 14.0702148,12.9624023 14.8110352,13.2529297 L14.8204102,14.5211914 C14.8307617,15.8870117 14.3085937,17.175 13.3500977,18.1479492 C12.8595703,18.6458984 12.284375,19.0298828 11.6577148,19.2882812 C11.6484375,19.2918945 11.6391602,19.2952148 11.6300781,19.2992187 C11.0400391,19.5384766 10.4050781,19.6672852 9.75107422,19.6719727 L9.70615234,19.6719727 C6.90810547,19.671875 4.61513672,17.3954102 4.59472656,14.5973633 Z M9.83857422,23.8352539 L8.48730469,21.8518555 L8.48730469,21.0208984 C8.88271484,21.0958984 9.28974609,21.1367187 9.70605469,21.1367187 L9.75634766,21.1367187 C10.2449219,21.1332031 10.7244141,21.0749023 11.1894531,20.9683594 L11.1894531,21.8524414 L9.83857422,23.8352539 Z M10.2214844,26.3110352 L10.084375,26.953125 L9.57685547,26.953125 L9.43964844,26.3111328 L9.48027344,26.2826172 L9.83056641,26.0366211 L10.2214844,26.3110352 Z M7.87734375,25.6179687 L6.40732422,23.1333984 L7.24863281,22.6355469 L8.82666016,24.9516602 L7.87734375,25.6179687 Z M9.83886719,34.3581055 L9.178125,33.4581055 L9.65126953,28.4179687 L10.0264648,28.4179687 L10.4996094,33.4581055 L9.83886719,34.3581055 Z M11.7998047,25.6179687 L10.8505859,24.9516602 L12.4285156,22.6355469 L13.2698242,23.1333984 L11.7998047,25.6179687 Z M14.9680664,22.647168 C14.9146484,22.4845703 14.8048828,22.3396484 14.6459961,22.2456055 L12.6541992,21.0670898 L12.6541992,20.4422852 C13.2910156,20.1226562 13.8786133,19.6984375 14.3933594,19.1759766 C15.3006836,18.2549805 15.9027344,17.1142578 16.1530273,15.8760742 L16.5338867,15.8731445 C17.0951172,15.8688477 17.6211914,15.6467773 18.0158203,15.2482422 C17.7109375,16.0976562 17.71875,17.0224609 18.0413086,18.0056641 C17.7344727,18.9982422 17.5962891,20.5508789 18.6063477,21.3785156 C18.8009766,21.8899414 19.2725586,22.5350586 20.1576172,22.7152344 C20.5771484,23.9609375 21.4666992,24.9783203 22.5957031,25.5814453 L22.5957031,26.1898437 C21.3660156,26.349707 20.2174805,26.8560547 19.2686523,27.6597656 C18.5919922,25.4827148 17.0405273,23.6591797 14.9680664,22.647168 Z M48.5351562,36.71875 L33.0263672,36.71875 L33.0263672,36.6210937 C33.0263672,36.2165039 32.6984375,35.8886719 32.2939453,35.8886719 C31.8894531,35.8886719 31.5615234,36.2165039 31.5615234,36.6210937 L31.5615234,36.71875 L18.4384766,36.71875 L18.4384766,32.6015625 C18.4384766,30.1126953 20.2991211,28.0165039 22.7010742,27.6550781 C23.0027344,28.6383789 23.919043,29.3554687 25,29.3554687 C26.080957,29.3554687 26.9972656,28.6384766 27.2989258,27.6550781 C29.7007812,28.0165039 31.5615234,30.1126953 31.5615234,32.6015625 L31.5615234,33.4838867 C31.5615234,33.8884766 31.8894531,34.2163086 32.2939453,34.2163086 C32.6984375,34.2163086 33.0263672,33.8884766 33.0263672,33.4838867 L33.0263672,32.6015625 C33.0263672,31.2932617 32.6378906,30.0423828 31.9183594,28.9810547 C32.280957,26.8405273 33.6410156,25.0004883 35.5672852,24.0172852 L37.3587891,27.0453125 C37.4626953,27.2209961 37.6353516,27.3453125 37.8348633,27.3883789 C37.8860352,27.3993164 37.9376953,27.4047852 37.9891602,27.4047852 C38.1384766,27.4047852 38.2857422,27.359082 38.4099609,27.271875 L40.1776367,26.0310547 L41.9452148,27.271875 C42.0694336,27.3591797 42.2166992,27.4047852 42.3660156,27.4047852 C42.4174805,27.4047852 42.4692383,27.3993164 42.5203125,27.3883789 C42.7198242,27.3454102 42.8924805,27.2209961 42.9963867,27.0453125 L44.7881836,24.0167969 C47.0831055,25.1831055 48.5351562,27.5223633 48.5351562,30.1376953 L48.5351562,36.71875 Z" id="Shape"></path>
                <circle id="Oval" cx="40.2275391" cy="29.5898438" r="1"></circle>
                <circle id="Oval" cx="40.2275391" cy="32.8867188" r="1"></circle>
                <circle id="Oval" cx="25.0703125" cy="31.8457031" r="1"></circle>
                <circle id="Oval" cx="25.0703125" cy="34.8632812" r="1"></circle>
            </g>
        </g>
    </g>
</svg>