<?xml version="1.0" encoding="UTF-8"?>
<svg width="50px" height="50px" viewBox="0 0 50 50" version="1.1" xmlns="http://www.w3.org/2000/svg" xmlns:xlink="http://www.w3.org/1999/xlink">
    <!-- Generator: Sketch 49.3 (51167) - http://www.bohemiancoding.com/sketch -->
    <title>hospital</title>
    <desc>Created with Sketch.</desc>
    <defs></defs>
    <g id="Site-1-agosto" stroke="none" stroke-width="1" fill="none" fill-rule="evenodd">
        <g id="Oportuinidades-2" transform="translate(-492.000000, -1111.000000)" fill="#000000" fill-rule="nonzero">
            <g id="hospital" transform="translate(492.000000, 1111.000000)">
                <path d="M25,0 C11.2048193,0 0,11.2048193 0,25 C0,38.7951807 11.2048193,50 25,50 C38.7951807,50 50,38.7951807 50,25 C50,11.2048193 38.7951807,0 25,0 Z M25,47.8313253 C12.4096386,47.8313253 2.1686747,37.5903614 2.1686747,25 C2.1686747,12.4096386 12.4096386,2.1686747 25,2.1686747 C37.5903614,2.1686747 47.8313253,12.4096386 47.8313253,25 C47.8313253,37.5903614 37.5903614,47.8313253 25,47.8313253 Z" id="Shape"></path>
                <path d="M38.0120482,19.5783133 L30.4216867,19.5783133 L30.4216867,11.9879518 C30.4216867,11.3855422 29.939759,10.9036145 29.3373494,10.9036145 L20.6626506,10.9036145 C20.060241,10.9036145 19.5783133,11.3855422 19.5783133,11.9879518 L19.5783133,19.5783133 L11.9879518,19.5783133 C11.3855422,19.5783133 10.9036145,20.060241 10.9036145,20.6626506 L10.9036145,29.3373494 C10.9036145,29.939759 11.3855422,30.4216867 11.9879518,30.4216867 L19.5783133,30.4216867 L19.5783133,38.0120482 C19.5783133,38.6144578 20.060241,39.0963855 20.6626506,39.0963855 L29.3373494,39.0963855 C29.939759,39.0963855 30.4216867,38.6144578 30.4216867,38.0120482 L30.4216867,30.4216867 L38.0120482,30.4216867 C38.6144578,30.4216867 39.0963855,29.939759 39.0963855,29.3373494 L39.0963855,20.6626506 C39.0361446,20.060241 38.5542169,19.5783133 38.0120482,19.5783133 Z M36.9879518,28.253012 L36.9277108,28.253012 L29.3373494,28.253012 C28.7349398,28.253012 28.253012,28.7349398 28.253012,29.3373494 L28.253012,36.9277108 L21.746988,36.9277108 L21.746988,29.3373494 C21.746988,28.7349398 21.2650602,28.253012 20.6626506,28.253012 L13.0722892,28.253012 L13.0722892,21.746988 L20.6626506,21.746988 C21.2650602,21.746988 21.746988,21.2650602 21.746988,20.6626506 L21.746988,13.0722892 L28.313253,13.0722892 L28.313253,20.6626506 C28.313253,21.2650602 28.7951807,21.746988 29.3975904,21.746988 L36.9879518,21.746988 L36.9879518,28.253012 Z" id="Shape"></path>
            </g>
        </g>
    </g>
</svg>