<?xml version="1.0" encoding="UTF-8"?>
<svg width="40px" height="39px" viewBox="0 0 40 39" version="1.1" xmlns="http://www.w3.org/2000/svg" xmlns:xlink="http://www.w3.org/1999/xlink">
    <!-- Generator: Sketch 49.3 (51167) - http://www.bohemiancoding.com/sketch -->
    <title>money</title>
    <desc>Created with Sketch.</desc>
    <defs></defs>
    <g id="Site-1-agosto" stroke="none" stroke-width="1" fill="none" fill-rule="evenodd">
        <g id="Oportunidades-4" transform="translate(-644.000000, -671.000000)" fill="#000000" fill-rule="nonzero">
            <g id="money" transform="translate(644.000000, 671.000000)">
                <path d="M33.976785,12.7780376 C33.9763674,12.7780376 33.9758664,12.7780376 33.9754489,12.7780376 L0.572526096,12.7780376 C0.256701461,12.7777035 0.000334029228,13.0334029 4.94538545e-16,13.3492276 C4.94538545e-16,13.3496451 4.94538545e-16,13.3501461 4.94538545e-16,13.3505637 L4.94538545e-16,29.3839666 C-0.000334029228,29.6997912 0.255365344,29.9561587 0.571189979,29.9564927 C0.571607516,29.9564927 0.572108559,29.9564927 0.572526096,29.9564927 L23.2865136,29.9564927 C23.6026722,29.9564927 23.8590397,29.7001253 23.8590397,29.3839666 C23.8590397,29.0678079 23.6026722,28.8114405 23.2865136,28.8114405 L1.14505219,28.8114405 L1.14505219,13.9230898 L33.4029228,13.9230898 L33.4029228,15.354739 C33.4025887,15.6705637 33.6582881,15.9269311 33.9741127,15.9272651 C33.9745303,15.9272651 33.9750313,15.9272651 33.9754489,15.9272651 C34.2912735,15.9275992 34.5476409,15.6718998 34.5479749,15.3560752 C34.5479749,15.3556576 34.5479749,15.3551566 34.5479749,15.354739 L34.5479749,13.3505637 C34.548309,13.034739 34.2926096,12.7784551 33.976785,12.7780376 Z" id="Shape"></path>
                <path d="M30.0926931,10.119833 L3.37035491,4.10730689 C3.22204593,4.07415449 3.06663883,4.10104384 2.93812109,4.18212944 C2.80977035,4.26388309 2.71899791,4.39306889 2.68559499,4.54154489 L1.34947808,10.554071 C1.28083507,10.862881 1.47557411,11.1688518 1.78438413,11.2374948 C2.09319415,11.3061378 2.39916493,11.1113987 2.46780793,10.8025887 L3.67899791,5.35056367 L29.8415031,11.2368267 C29.8829228,11.2464301 29.925261,11.25119 29.9677662,11.2508559 C30.2839248,11.2502714 30.5397912,10.9934864 30.5392902,10.6773278 C30.5387891,10.4100209 30.3534029,10.1787056 30.0926931,10.119833 Z" id="Shape"></path>
                <path d="M26.8479332,6.80693111 L10.8145303,0.126346555 C10.5358664,0.0101878914 10.2147808,0.129519833 10.079666,0.399582463 L8.74354906,3.07181628 C8.59265136,3.3508977 8.69653445,3.69954071 8.97569937,3.85043841 C9.25478079,4.00133612 9.6034238,3.89745303 9.7543215,3.6182881 C9.76025052,3.60734864 9.76584551,3.59615866 9.77102296,3.58480167 L9.77102296,3.58613779 L10.8673069,1.39223382 L26.4056785,7.86638831 C26.6982881,7.98847599 27.0344885,7.85035491 27.1565762,7.5577453 C27.2786639,7.26530271 27.1405428,6.9291023 26.8479332,6.80693111 Z" id="Shape"></path>
                <path d="M27.2527766,15.4502714 L21.9503967,15.4502714 C21.634238,15.4502714 21.3778706,15.7066388 21.3778706,16.0227975 C21.3778706,16.3389562 21.634238,16.5953236 21.9503967,16.5953236 L27.2527766,16.5953236 C27.5689353,16.5953236 27.8253027,16.3389562 27.8253027,16.0227975 C27.8253027,15.7066388 27.5689353,15.4502714 27.2527766,15.4502714 Z" id="Shape"></path>
                <path d="M16.605929,15.4883507 C13.3590814,15.4883507 10.7270146,18.1204175 10.7270146,21.3672651 C10.7303549,24.6126931 13.360501,27.2428392 16.605929,27.2461795 C19.8527766,27.2461795 22.4848434,24.6141127 22.4848434,21.3672651 C22.4848434,18.1204175 19.8527766,15.4883507 16.605929,15.4883507 Z M16.605929,26.177286 C13.9493946,26.177286 11.7959081,24.0237996 11.7959081,21.3672651 C11.7988309,18.7119833 13.9506472,16.560167 16.605929,16.5572443 C19.2624635,16.5572443 21.4159499,18.7107307 21.4159499,21.3672651 C21.4159499,24.0237996 19.2624635,26.177286 16.605929,26.177286 Z" id="Shape"></path>
                <path d="M32.6393319,17.3589144 C29.0986221,17.3589144 25.2906889,18.1953236 25.2906889,20.0311482 L25.2906889,36.0645511 C25.2906889,37.9003758 29.0986221,38.736785 32.6393319,38.736785 C36.1800418,38.736785 39.9879749,37.9003758 39.9879749,36.0645511 L39.9879749,20.0311482 C39.9879749,18.1953236 36.1800418,17.3589144 32.6393319,17.3589144 Z M38.651858,36.0545303 C38.5509812,36.4253027 36.5474739,37.4006681 32.6393319,37.4006681 C28.73119,37.4006681 26.7276827,36.4253027 26.6268058,36.0645511 L26.6268058,35.0143633 C28.0484342,35.7305219 30.3966597,36.0645511 32.6393319,36.0645511 C34.8820042,36.0645511 37.2308977,35.7271816 38.651858,35.0136952 L38.651858,36.0545303 Z M38.651858,33.3822965 C38.5509812,33.7530689 36.5474739,34.7284342 32.6393319,34.7284342 C28.73119,34.7284342 26.7276827,33.7530689 26.6268058,33.3923173 L26.6268058,32.3421294 C28.0484342,33.0582881 30.3966597,33.3923173 32.6393319,33.3923173 C34.8820042,33.3923173 37.2308977,33.0549478 38.651858,32.3414614 L38.651858,33.3822965 Z M38.651858,30.7100626 C38.5509812,31.0808351 36.5474739,32.0562004 32.6393319,32.0562004 C28.73119,32.0562004 26.7276827,31.0808351 26.6268058,30.7200835 L26.6268058,29.6698956 C28.0484342,30.3860543 30.3966597,30.7200835 32.6393319,30.7200835 C34.8820042,30.7200835 37.2308977,30.382714 38.651858,29.6692276 L38.651858,30.7100626 Z M38.651858,28.0378288 C38.5509812,28.4086013 36.5474739,29.3839666 32.6393319,29.3839666 C28.73119,29.3839666 26.7276827,28.4086013 26.6268058,28.0478497 L26.6268058,26.9976618 C28.0484342,27.7138205 30.3966597,28.0478497 32.6393319,28.0478497 C34.8820042,28.0478497 37.2308977,27.7104802 38.651858,26.9969937 L38.651858,28.0378288 Z M38.651858,25.365595 C38.5509812,25.7363674 36.5474739,26.7117328 32.6393319,26.7117328 C28.73119,26.7117328 26.7276827,25.7363674 26.6268058,25.3756159 L26.6268058,24.325428 C28.0484342,25.0382463 30.3966597,25.3756159 32.6393319,25.3756159 C34.8820042,25.3756159 37.2308977,25.0382463 38.651858,24.3247599 L38.651858,25.365595 Z M38.651858,22.6933612 C38.5509812,23.0641336 36.5474739,24.039499 32.6393319,24.039499 C28.73119,24.039499 26.7276827,23.0641336 26.6268058,22.703382 L26.6268058,21.6531942 C28.0484342,22.3660125 30.3966597,22.703382 32.6393319,22.703382 C34.8820042,22.703382 37.2308977,22.3660125 38.651858,21.6525261 L38.651858,22.6933612 Z M32.6393319,21.3672651 C28.7372025,21.3672651 26.7343633,20.394572 26.6268058,20.0431733 L26.6268058,20.0391649 C26.7343633,19.6670564 28.7372025,18.6950313 32.6393319,18.6950313 C36.514071,18.6950313 38.5182463,19.6530271 38.651858,20.0311482 C38.5182463,20.4092693 36.514071,21.3672651 32.6393319,21.3672651 Z" id="Shape"></path>
                <path d="M11.2614614,26.1385386 L6.21160752,26.1385386 L3.81728601,23.5197495 L3.81728601,19.1773695 L6.46146138,16.5953236 L11.2614614,16.5953236 C11.57762,16.5953236 11.8339875,16.3389562 11.8339875,16.0227975 C11.8339875,15.7066388 11.57762,15.4502714 11.2614614,15.4502714 L6.22897704,15.4502714 C6.07933194,15.4499374 5.93544885,15.5082255 5.82814196,15.6126096 L2.84392484,18.5233403 C2.73244259,18.6536117 2.67131524,18.8195407 2.67156576,18.9909812 L2.67156576,23.7422129 C2.67156576,23.8850939 2.72492693,24.0227975 2.82121086,24.1283507 L5.53553236,27.0972025 C5.64400835,27.2159499 5.79749478,27.2836743 5.95841336,27.2835908 L11.2614614,27.2835908 C11.57762,27.2835908 11.8339875,27.0272234 11.8339875,26.7110647 C11.8339875,26.3949061 11.5777035,26.1385386 11.2614614,26.1385386 Z" id="Shape"></path>
                <path d="M16.9399582,20.6992067 L16.2718998,20.6992067 C16.0641336,20.6992067 15.9378706,20.5829645 15.9378706,20.5321921 C15.9378706,20.4814196 16.0641336,20.3651775 16.2718998,20.3651775 L17.9420459,20.3651775 C18.3109812,20.3651775 18.6101044,20.0660543 18.6101044,19.697119 C18.6101044,19.3281837 18.3109812,19.0290605 17.9420459,19.0290605 L17.2739875,19.0290605 C17.2739875,18.6601253 16.9748643,18.3610021 16.605929,18.3610021 C16.2369937,18.3610021 15.9378706,18.6601253 15.9378706,19.0290605 L15.9378706,19.0591232 C15.1969102,19.1637578 14.6355741,19.7812944 14.6017537,20.5288518 C14.6496033,21.4047599 15.3956576,22.0777453 16.2718998,22.0353236 L16.9399582,22.0353236 C17.1477244,22.0353236 17.2739875,22.1515658 17.2739875,22.2023382 C17.2739875,22.2531106 17.1477244,22.3693528 16.9399582,22.3693528 L15.2698121,22.3693528 C14.9008768,22.3693528 14.6017537,22.668476 14.6017537,23.0374113 C14.6017537,23.4063466 14.9008768,23.7054697 15.2698121,23.7054697 L15.9378706,23.7054697 C15.9378706,24.074405 16.2369937,24.3735282 16.605929,24.3735282 C16.9748643,24.3735282 17.2739875,24.074405 17.2739875,23.7054697 L17.2739875,23.6754071 C18.0149478,23.5707724 18.5762839,22.9532359 18.6101044,22.2056785 C18.5622547,21.3297704 17.8162004,20.656785 16.9399582,20.6992067 Z" id="Shape"></path>
            </g>
        </g>
    </g>
</svg>