<?xml version="1.0" encoding="UTF-8"?>
<svg width="45px" height="45px" viewBox="0 0 45 45" version="1.1" xmlns="http://www.w3.org/2000/svg" xmlns:xlink="http://www.w3.org/1999/xlink">
    <!-- Generator: Sketch 49.3 (51167) - http://www.bohemiancoding.com/sketch -->
    <title>politics copy 2</title>
    <desc>Created with Sketch.</desc>
    <defs></defs>
    <g id="Site-1-agosto" stroke="none" stroke-width="1" fill="none" fill-rule="evenodd">
        <g id="Proteção-4---Contexto-economico" transform="translate(-105.000000, -1253.000000)" fill="#000000" fill-rule="nonzero">
            <g id="politics-copy-2" transform="translate(105.000000, 1253.000000)">
                <path d="M20.3696823,17.3965073 L19.0829087,17.3965073 L19.0829087,15.4598237 C19.0829087,12.9106521 17.4648285,10.6361389 15.0567627,9.80014799 L13.240242,9.16946411 C14.257164,8.36402889 14.9111938,7.11982723 14.9111938,5.72490694 L14.9111938,4.39350126 C14.9111938,1.97101591 12.9401779,0 10.5176926,0 C8.09520724,0 6.12419133,1.97101591 6.12419133,4.39350126 L6.12419133,5.72490694 C6.12419133,7.11982723 6.77856445,8.36402889 7.79514311,9.16946411 L5.97862248,9.80014799 C3.57055664,10.6361389 1.95247652,12.9106521 1.95247652,15.4598237 L1.95247652,17.3965073 L0.665702842,17.3965073 C0.29800415,17.3965073 0,17.6945114 0,18.06221 L0,21.2575149 C0,21.6252136 0.29800415,21.9232178 0.665702842,21.9232178 L1.35578153,21.9232178 L1.41963961,23.6491013 C1.43337252,24.0164566 1.73927303,24.3038178 2.1097183,24.2893982 C2.47707369,24.2756653 2.76374813,23.9670181 2.75001521,23.5996628 L2.68787382,21.9232178 L18.3468247,21.9232178 L17.5104904,43.6685943 L3.52523804,43.6685943 L2.8729248,26.7125702 C2.85884859,26.3452148 2.55054472,26.0599136 2.18215942,26.0729599 C1.81480412,26.0870361 1.5284729,26.3963699 1.54254911,26.7637253 L2.21958158,44.3597031 C2.23297119,44.7171021 2.52685547,45 2.88459773,45 L18.1507874,45 C18.5085297,45 18.802414,44.7171021 18.8161469,44.3597031 L19.678917,21.9228745 L20.3696823,21.9228745 C20.7373809,21.9228745 21.0353852,21.6248703 21.0353852,21.2571716 L21.0353852,18.06221 C21.0353852,17.6945114 20.7373809,17.3965073 20.3696823,17.3965073 Z M7.45559692,4.39350126 C7.45559692,2.70504 8.82923124,1.33140568 10.5176926,1.33140568 C12.2061538,1.33140568 13.5797882,2.70504 13.5797882,4.39350126 L13.5797882,5.72490694 C13.5797882,7.4133682 12.2061538,8.78700252 10.5176926,8.78700252 C8.82923124,8.78700252 7.45559692,7.4133682 7.45559692,5.72490694 L7.45559692,4.39350126 Z M11.9143296,10.1184082 L12.5611496,10.3429413 L10.5176926,13.8887787 L8.47457886,10.3429413 L9.12105563,10.1184082 L11.9143296,10.1184082 Z M3.28388212,15.4598237 C3.28388212,13.4771347 4.54250338,11.7083359 6.41532902,11.0577393 L7.19398494,10.7875442 L9.94091036,15.5542373 C10.0597,15.7605743 10.2797699,15.8876038 10.5176926,15.8876038 C10.7556152,15.8876038 10.9756851,15.7605743 11.0944748,15.5542373 L13.8414001,10.7875442 L14.6200562,11.0577393 C16.4928818,11.7079926 17.751503,13.4771347 17.751503,15.4598237 L17.751503,17.3965073 L3.28388212,17.3965073 L3.28388212,15.4598237 Z M19.7039795,20.5918121 L1.33140568,20.5918121 L1.33140568,18.7279129 L19.7039795,18.7279129 L19.7039795,20.5918121 Z" id="Shape"></path>
                <path d="M14.4229888,39.4972229 C14.7906875,39.4972229 15.0886917,39.1988754 15.0886917,38.8315201 L15.0886917,25.3403091 C15.0886917,24.9726104 14.7906875,24.6746064 14.4229888,24.6746064 C14.0703964,24.6746064 13.7826919,24.9489212 13.7596894,25.2960205 L9.27520752,25.2960205 C8.90750883,25.2960205 8.60950468,25.5940247 8.60950468,25.9617233 L8.60950468,27.0709991 L6.61239624,27.0709991 C6.24469755,27.0709991 5.9466934,27.3690033 5.9466934,27.7367019 L5.9466934,32.8844834 C5.9466934,33.2521821 6.24469755,33.5501861 6.61239624,33.5501861 L11.760521,33.5501861 C12.1278763,33.5501861 12.4262237,33.2521821 12.4262237,32.8844834 L12.4262237,31.7752075 L13.7572861,31.7752075 L13.7572861,38.8315201 C13.7572861,39.1988754 14.0552902,39.4972229 14.4229888,39.4972229 Z M11.0948181,32.2187805 L7.27809908,32.2187805 L7.27809908,28.4024048 L8.60950468,28.4024048 L8.60950468,31.1095047 C8.60950468,31.4772034 8.90750883,31.7752075 9.27520752,31.7752075 L11.0948181,31.7752075 L11.0948181,32.2187805 Z M9.94091036,30.4438018 L9.94091036,26.6274262 L13.7572861,26.6274262 L13.7572861,30.4438018 L9.94091036,30.4438018 Z" id="Shape"></path>
                <path d="M44.3342972,17.3965073 L43.0471802,17.3965073 L43.0471802,15.4598237 C43.0471802,12.9106521 41.4294434,10.6361389 39.0213775,9.80014799 L37.2045136,9.16946411 C38.2214355,8.36402889 38.8758087,7.11982723 38.8758087,5.72490694 L38.8758087,4.39350126 C38.8758087,1.97101591 36.9047928,0 34.4823074,0 C32.0598221,0 30.0888062,1.97101591 30.0888062,4.39350126 L30.0888062,5.72490694 C30.0888062,7.11982723 30.742836,8.36402889 31.759758,9.16946411 L29.9432373,9.80014799 C27.5351715,10.6361389 25.9170913,12.9106521 25.9170913,15.4598237 L25.9170913,17.3965073 L24.6299744,17.3965073 C24.2626191,17.3965073 23.9642715,17.6945114 23.9642715,18.06221 L23.9642715,21.2575149 C23.9642715,21.6252136 24.2626191,21.9232178 24.6299744,21.9232178 L25.321083,21.9232178 L26.1838531,44.3600464 C26.197586,44.7174454 26.4914703,45 26.8492126,45 L42.1154023,45 C42.4731445,45 42.7666855,44.7174454 42.7804184,44.3600464 L43.4571075,26.7637253 C43.4715271,26.3963699 43.1851959,26.0870361 42.8178406,26.0729599 C42.4532319,26.0616303 42.1411514,26.3452148 42.1270752,26.7125702 L41.474762,43.6685943 L27.4895096,43.6685943 L26.6531753,21.9232178 L42.3121262,21.9232178 L42.2499848,23.5996628 C42.2362519,23.9670181 42.5229263,24.2760086 42.8902817,24.2893982 C43.2579804,24.3038178 43.5666275,24.0164566 43.5803604,23.6491013 L43.6442185,21.9232178 L44.3342972,21.9232178 C44.7019958,21.9232178 45,21.6252136 45,21.2575149 L45,18.06221 C45,17.6945114 44.7019958,17.3965073 44.3342972,17.3965073 Z M31.4202118,4.39350126 C31.4202118,2.70504 32.7938462,1.33140568 34.4823074,1.33140568 C36.1707688,1.33140568 37.5444031,2.70504 37.5444031,4.39350126 L37.5444031,5.72490694 C37.5444031,7.4133682 36.1707688,8.78700252 34.4823074,8.78700252 C32.7938462,8.78700252 31.4202118,7.4133682 31.4202118,5.72490694 L31.4202118,4.39350126 Z M35.8789444,10.1184082 L36.5254211,10.3429413 L34.4823074,13.8887787 L32.4388504,10.3429413 L33.0856704,10.1184082 L35.8789444,10.1184082 Z M27.248497,15.4598237 C27.248497,13.4771347 28.5071182,11.7083359 30.3799438,11.0577393 L31.1585999,10.7875442 L33.9055252,15.5542373 C34.0243149,15.7605743 34.2440415,15.8876038 34.4823074,15.8876038 C34.7202301,15.8876038 34.9399566,15.7605743 35.0590896,15.5542373 L37.8060151,10.7875442 L38.584671,11.0577393 C40.4574966,11.7079926 41.7157745,13.4771347 41.7157745,15.4598237 L41.7157745,17.3965073 L27.248497,17.3965073 L27.248497,15.4598237 Z M43.6685943,20.5918121 L25.2960205,20.5918121 L25.2960205,18.7279129 L43.6685943,18.7279129 L43.6685943,20.5918121 Z" id="Shape"></path>
                <path d="M33.239479,33.5501861 L38.3876038,33.5501861 C38.7553025,33.5501861 39.0533066,33.2521821 39.0533066,32.8844834 L39.0533066,27.7367019 C39.0533066,27.3690033 38.7553025,27.0709991 38.3876038,27.0709991 L36.3904953,27.0709991 L36.3904953,25.9617233 C36.3904953,25.5940247 36.0924912,25.2960205 35.7247925,25.2960205 L31.2403106,25.2960205 C31.2173081,24.9489212 30.9296036,24.6746064 30.5770112,24.6746064 C30.2093125,24.6746064 29.9113083,24.9726104 29.9113083,25.3403091 L29.9113083,38.8315201 C29.9113083,39.1988754 30.2093125,39.4972229 30.5770112,39.4972229 C30.9443665,39.4972229 31.2427139,39.1988754 31.2427139,38.8315201 L31.2427139,31.7752075 L32.5737763,31.7752075 L32.5737763,32.8844834 C32.5737763,33.2521821 32.8721237,33.5501861 33.239479,33.5501861 Z M37.7219009,28.4024048 L37.7219009,32.2187805 L33.9051819,32.2187805 L33.9051819,31.7752075 L35.7247925,31.7752075 C36.0924912,31.7752075 36.3904953,31.4772034 36.3904953,31.1095047 L36.3904953,28.4024048 L37.7219009,28.4024048 Z M31.2427139,26.6274262 L35.0590896,26.6274262 L35.0590896,30.4438018 L31.2427139,30.4438018 L31.2427139,26.6274262 Z" id="Shape"></path>
            </g>
        </g>
    </g>
</svg>