<?xml version="1.0" encoding="UTF-8"?>
<svg width="40px" height="46px" viewBox="0 0 40 46" version="1.1" xmlns="http://www.w3.org/2000/svg" xmlns:xlink="http://www.w3.org/1999/xlink">
    <!-- Generator: Sketch 49.3 (51167) - http://www.bohemiancoding.com/sketch -->
    <title>save-money</title>
    <desc>Created with Sketch.</desc>
    <defs></defs>
    <g id="Site-1-agosto" stroke="none" stroke-width="1" fill="none" fill-rule="evenodd">
        <g id="Oportunidades-4" transform="translate(-788.000000, -668.000000)" fill="#000000" fill-rule="nonzero">
            <g id="save-money" transform="translate(788.000000, 668.000000)">
                <path d="M20.4981149,24.7030887 C20.4143707,24.6849623 20.3284512,24.6816995 20.2436195,24.694388 C19.393489,24.5954176 18.7521752,23.8761601 18.750725,23.0205916 C18.750725,22.6105713 18.4182859,22.2781323 18.0082656,22.2781323 C17.5982454,22.2781323 17.2658062,22.6105713 17.2658062,23.0205916 C17.2679814,24.4493184 18.2236079,25.7007685 19.6012181,26.0788863 L19.6012181,26.8213457 C19.6012181,27.231366 19.9336572,27.5638051 20.3436775,27.5638051 C20.7536978,27.5638051 21.0861369,27.231366 21.0861369,26.8213457 L21.0861369,26.1238399 C22.6761891,25.7910383 23.7568881,24.3101073 23.5897622,22.6943155 C23.4222738,21.0785238 22.0609774,19.8506381 20.4364849,19.8502755 C19.5055104,19.8502755 18.750725,19.0954901 18.750725,18.1645156 C18.750725,17.2335412 19.5055104,16.4787558 20.4364849,16.4787558 C21.3674594,16.4787558 22.1222448,17.2335412 22.1222448,18.1645156 C22.1222448,18.574536 22.4546839,18.906975 22.8647042,18.906975 C23.2747245,18.906975 23.6071636,18.574536 23.6071636,18.1645156 C23.6049884,16.6643707 22.5540168,15.3705047 21.0861369,15.0609049 L21.0861369,14.3851508 C21.0861369,13.9751305 20.7536978,13.6426914 20.3436775,13.6426914 C19.9336572,13.6426914 19.6012181,13.9751305 19.6012181,14.3851508 L19.6012181,15.106221 C18.0691705,15.5245795 17.0830916,17.012036 17.2940835,18.5861369 C17.5050755,20.1602378 18.8482454,21.3351943 20.4364849,21.3348317 C21.3551334,21.3348317 22.1044808,22.0704032 22.1211572,22.9886891 C22.138196,23.906975 21.4160382,24.6697361 20.4981149,24.7030887 Z" id="Shape"></path>
                <path d="M9.67009856,20.649652 C9.67009856,26.5958526 14.4902842,31.4160382 20.4364849,31.4160382 C26.3826857,31.4160382 31.2028713,26.5958526 31.2028713,20.649652 C31.2028713,14.7034513 26.3826857,9.88326571 20.4364849,9.88326571 C14.4931844,9.88979118 9.67698664,14.7063516 9.67009856,20.649652 Z M20.4364849,11.3681845 C25.562645,11.3681845 29.7179525,15.5234919 29.7179525,20.649652 C29.7179525,25.7758121 25.562645,29.9311194 20.4364849,29.9311194 C15.3103248,29.9311194 11.1550174,25.7758121 11.1550174,20.649652 C11.1608178,15.5260296 15.3128626,11.373985 20.4364849,11.3681845 Z" id="Shape"></path>
                <path d="M34.8629641,33.2464472 L29.0469113,35.9944171 C28.2439095,34.5007976 26.7035238,33.5502465 25.0083382,33.5023927 L19.6392836,33.3548434 C18.7891531,33.330554 17.9549739,33.1152117 17.1991009,32.724768 L16.6527697,32.4416329 C13.855496,30.9835412 10.5213168,30.9871665 7.72694311,32.4510586 L7.76102088,31.2133846 C7.7722593,30.8033643 7.44924594,30.4618619 7.03922561,30.4506236 L1.15175462,30.2885731 C0.741734385,30.2773347 0.400594524,30.600348 0.389356102,31.0103684 L0.033715174,43.9301769 C0.0224768445,44.3401972 0.345490116,44.6816995 0.755510441,44.6929379 L6.64298144,44.8549884 L6.66328306,44.8549884 C7.06569021,44.8549884 7.39486664,44.5348753 7.40574246,44.1328306 L7.42278135,43.5147187 L8.95229123,42.6957657 C9.55263926,42.3727523 10.2544954,42.2958961 10.9103103,42.481511 L20.043866,45.0449536 C20.0598173,45.0496665 20.0757685,45.0532918 20.0920824,45.056917 C20.7522477,45.1950406 21.4251015,45.2642836 22.0994055,45.2639211 C23.5277697,45.2646461 24.9394576,44.956859 26.2376741,44.3608613 C26.2695766,44.3463602 26.3003916,44.3293214 26.3297564,44.3101073 L39.5725783,35.744272 C39.9024797,35.5307425 40.0090632,35.0975203 39.8158353,34.7552929 C38.8326566,33.0108033 36.6520446,32.3462877 34.8629641,33.2464472 Z M1.53857309,43.2290458 L1.85324826,31.793431 L6.25616297,31.9145156 L5.9414878,43.350493 L1.53857309,43.2290458 Z M25.568808,43.0347303 C23.9559165,43.7626885 22.1545099,43.9635296 20.4208961,43.6093387 L11.3119925,41.0524217 C10.2867605,40.762761 9.18938515,40.8827581 8.2515226,41.3870359 L7.46991007,41.8057569 L7.67908937,34.2024362 C10.1558875,32.5551044 13.3323666,32.3858033 15.9701276,33.7601508 L16.5164588,34.0432859 C17.4713602,34.5363254 18.5245069,34.8082222 19.5986804,34.8393996 L24.9680974,34.986949 C26.4762181,35.0304524 27.757033,36.1042634 28.0630075,37.5819315 L20.0652552,37.3611514 C19.6552349,37.3499129 19.3140951,37.6732889 19.3024942,38.0829466 C19.2912558,38.492967 19.6146316,38.8344692 20.0242895,38.8457077 L28.8504205,39.0886021 L28.8710847,39.0886021 C29.2731294,39.0882395 29.6019432,38.7681264 29.612819,38.3664444 C29.6218822,38.0437935 29.5979554,37.7207801 29.5410383,37.4032047 L35.506453,34.5845418 C35.5122535,34.5820041 35.5180539,34.5791039 35.5238544,34.5762036 C36.3699971,34.1480568 37.3930539,34.2912558 38.0891096,34.9354699 L25.568808,43.0347303 Z" id="Shape"></path>
                <path d="M21.1789443,7.79582367 L21.1789443,0.742459397 C21.1789443,0.332439072 20.8465052,0 20.4364849,0 C20.0264646,0 19.6940255,0.332439072 19.6940255,0.742459397 L19.6940255,7.79582367 C19.6940255,8.20584399 20.0264646,8.53828306 20.4364849,8.53828306 C20.8465052,8.53828306 21.1789443,8.20584399 21.1789443,7.79582367 Z" id="Shape"></path>
                <path d="M26.7473898,7.79582367 L26.7473898,4.45475638 C26.7473898,4.04473606 26.4149507,3.71229698 26.0049304,3.71229698 C25.5949101,3.71229698 25.262471,4.04473606 25.262471,4.45475638 L25.262471,7.79582367 C25.262471,8.20584399 25.5949101,8.53828306 26.0049304,8.53828306 C26.4149507,8.53828306 26.7473898,8.20584399 26.7473898,7.79582367 Z" id="Shape"></path>
                <path d="M15.6104988,7.79582367 L15.6104988,4.45475638 C15.6104988,4.04473606 15.2780598,3.71229698 14.8680394,3.71229698 C14.4580191,3.71229698 14.12558,4.04473606 14.12558,4.45475638 L14.12558,7.79582367 C14.12558,8.20584399 14.4580191,8.53828306 14.8680394,8.53828306 C15.2780598,8.53828306 15.6104988,8.20584399 15.6104988,7.79582367 Z" id="Shape"></path>
            </g>
        </g>
    </g>
</svg>