<?xml version="1.0" encoding="UTF-8"?>
<svg width="50px" height="50px" viewBox="0 0 50 50" version="1.1" xmlns="http://www.w3.org/2000/svg" xmlns:xlink="http://www.w3.org/1999/xlink">
    <!-- Generator: Sketch 49.3 (51167) - http://www.bohemiancoding.com/sketch -->
    <title>building copy</title>
    <desc>Created with Sketch.</desc>
    <defs></defs>
    <g id="Site-1-agosto" stroke="none" stroke-width="1" fill="none" fill-rule="evenodd">
        <g id="Oportunidades" transform="translate(-772.000000, -1116.000000)" fill="#000000" fill-rule="nonzero">
            <g id="building-copy" transform="translate(772.000000, 1116.000000)">
                <path d="M49.1666667,48.3333333 L44.1666667,48.3333333 L44.1666667,20.8333333 C44.1666667,20.373125 43.7935417,20 43.3333333,20 L31.6666667,20 L31.6666667,0.833333333 C31.6666667,0.373125 31.2935417,0 30.8333333,0 L9.16666667,0 C8.70645833,0 8.33333333,0.373125 8.33333333,0.833333333 L8.33333333,48.3333333 L0.833333333,48.3333333 C0.373125,48.3333333 0,48.7064583 0,49.1666667 C0,49.626875 0.373125,50 0.833333333,50 L49.1666667,50 C49.626875,50 50,49.626875 50,49.1666667 C50,48.7064583 49.626875,48.3333333 49.1666667,48.3333333 Z M17.5,48.3333333 L14.1666667,48.3333333 L14.1666667,40.8333333 C14.1666667,40.373125 14.5397917,40 15,40 L16.6666667,40 C17.126875,40 17.5,40.373125 17.5,40.8333333 L17.5,48.3333333 Z M20.8333333,20.8333333 L20.8333333,48.3333333 L19.1666667,48.3333333 L19.1666667,40.8333333 C19.1666667,39.4526042 18.0473958,38.3333333 16.6666667,38.3333333 L15,38.3333333 C13.6192708,38.3333333 12.5,39.4526042 12.5,40.8333333 L12.5,48.3333333 L10,48.3333333 L10,1.66666667 L30,1.66666667 L30,20 L21.6666667,20 C21.2064583,20 20.8333333,20.373125 20.8333333,20.8333333 Z M42.5,48.3333333 L22.5,48.3333333 L22.5,21.6666667 L42.5,21.6666667 L42.5,48.3333333 Z" id="Shape"></path>
                <path d="M26.6666667,11.6666667 L21.6666667,11.6666667 C21.2064583,11.6666667 20.8333333,12.0397917 20.8333333,12.5 L20.8333333,17.5 C20.8333333,17.9602083 21.2064583,18.3333333 21.6666667,18.3333333 L26.6666667,18.3333333 C27.126875,18.3333333 27.5,17.9602083 27.5,17.5 L27.5,12.5 C27.5,12.0397917 27.126875,11.6666667 26.6666667,11.6666667 Z M25.8333333,16.6666667 L22.5,16.6666667 L22.5,13.3333333 L25.8333333,13.3333333 L25.8333333,16.6666667 Z" id="Shape"></path>
                <path d="M26.6666667,3.33333333 L21.6666667,3.33333333 C21.2064583,3.33333333 20.8333333,3.70645833 20.8333333,4.16666667 L20.8333333,9.16666667 C20.8333333,9.626875 21.2064583,10 21.6666667,10 L26.6666667,10 C27.126875,10 27.5,9.626875 27.5,9.16666667 L27.5,4.16666667 C27.5,3.70645833 27.126875,3.33333333 26.6666667,3.33333333 Z M25.8333333,8.33333333 L22.5,8.33333333 L22.5,5 L25.8333333,5 L25.8333333,8.33333333 Z" id="Shape"></path>
                <path d="M18.3333333,11.6666667 L13.3333333,11.6666667 C12.873125,11.6666667 12.5,12.0397917 12.5,12.5 L12.5,17.5 C12.5,17.9602083 12.873125,18.3333333 13.3333333,18.3333333 L18.3333333,18.3333333 C18.7935417,18.3333333 19.1666667,17.9602083 19.1666667,17.5 L19.1666667,12.5 C19.1666667,12.0397917 18.7935417,11.6666667 18.3333333,11.6666667 Z M17.5,16.6666667 L14.1666667,16.6666667 L14.1666667,13.3333333 L17.5,13.3333333 L17.5,16.6666667 Z" id="Shape"></path>
                <path d="M18.3333333,3.33333333 L13.3333333,3.33333333 C12.873125,3.33333333 12.5,3.70645833 12.5,4.16666667 L12.5,9.16666667 C12.5,9.626875 12.873125,10 13.3333333,10 L18.3333333,10 C18.7935417,10 19.1666667,9.626875 19.1666667,9.16666667 L19.1666667,4.16666667 C19.1666667,3.70645833 18.7935417,3.33333333 18.3333333,3.33333333 Z M17.5,8.33333333 L14.1666667,8.33333333 L14.1666667,5 L17.5,5 L17.5,8.33333333 Z" id="Shape"></path>
                <path d="M18.3333333,20 L13.3333333,20 C12.873125,20 12.5,20.373125 12.5,20.8333333 L12.5,25.8333333 C12.5,26.2935417 12.873125,26.6666667 13.3333333,26.6666667 L18.3333333,26.6666667 C18.7935417,26.6666667 19.1666667,26.2935417 19.1666667,25.8333333 L19.1666667,20.8333333 C19.1666667,20.373125 18.7935417,20 18.3333333,20 Z M17.5,25 L14.1666667,25 L14.1666667,21.6666667 L17.5,21.6666667 L17.5,25 Z" id="Shape"></path>
                <path d="M18.3333333,28.3333333 L13.3333333,28.3333333 C12.873125,28.3333333 12.5,28.7064583 12.5,29.1666667 L12.5,34.1666667 C12.5,34.626875 12.873125,35 13.3333333,35 L18.3333333,35 C18.7935417,35 19.1666667,34.626875 19.1666667,34.1666667 L19.1666667,29.1666667 C19.1666667,28.7064583 18.7935417,28.3333333 18.3333333,28.3333333 Z M17.5,33.3333333 L14.1666667,33.3333333 L14.1666667,30 L17.5,30 L17.5,33.3333333 Z" id="Shape"></path>
                <path d="M34.1666667,38.3333333 L39.1666667,38.3333333 C39.626875,38.3333333 40,37.9602083 40,37.5 L40,32.5 C40,32.0397917 39.626875,31.6666667 39.1666667,31.6666667 L34.1666667,31.6666667 C33.7064583,31.6666667 33.3333333,32.0397917 33.3333333,32.5 L33.3333333,37.5 C33.3333333,37.9602083 33.7064583,38.3333333 34.1666667,38.3333333 Z M35,33.3333333 L38.3333333,33.3333333 L38.3333333,36.6666667 L35,36.6666667 L35,33.3333333 Z" id="Shape"></path>
                <path d="M34.1666667,30 L39.1666667,30 C39.626875,30 40,29.626875 40,29.1666667 L40,24.1666667 C40,23.7064583 39.626875,23.3333333 39.1666667,23.3333333 L34.1666667,23.3333333 C33.7064583,23.3333333 33.3333333,23.7064583 33.3333333,24.1666667 L33.3333333,29.1666667 C33.3333333,29.626875 33.7064583,30 34.1666667,30 Z M35,25 L38.3333333,25 L38.3333333,28.3333333 L35,28.3333333 L35,25 Z" id="Shape"></path>
                <path d="M34.1666667,46.6666667 L39.1666667,46.6666667 C39.626875,46.6666667 40,46.2935417 40,45.8333333 L40,40.8333333 C40,40.373125 39.626875,40 39.1666667,40 L34.1666667,40 C33.7064583,40 33.3333333,40.373125 33.3333333,40.8333333 L33.3333333,45.8333333 C33.3333333,46.2935417 33.7064583,46.6666667 34.1666667,46.6666667 Z M35,41.6666667 L38.3333333,41.6666667 L38.3333333,45 L35,45 L35,41.6666667 Z" id="Shape"></path>
                <path d="M25.8333333,38.3333333 L30.8333333,38.3333333 C31.2935417,38.3333333 31.6666667,37.9602083 31.6666667,37.5 L31.6666667,32.5 C31.6666667,32.0397917 31.2935417,31.6666667 30.8333333,31.6666667 L25.8333333,31.6666667 C25.373125,31.6666667 25,32.0397917 25,32.5 L25,37.5 C25,37.9602083 25.373125,38.3333333 25.8333333,38.3333333 Z M26.6666667,33.3333333 L30,33.3333333 L30,36.6666667 L26.6666667,36.6666667 L26.6666667,33.3333333 Z" id="Shape"></path>
                <path d="M25.8333333,30 L30.8333333,30 C31.2935417,30 31.6666667,29.626875 31.6666667,29.1666667 L31.6666667,24.1666667 C31.6666667,23.7064583 31.2935417,23.3333333 30.8333333,23.3333333 L25.8333333,23.3333333 C25.373125,23.3333333 25,23.7064583 25,24.1666667 L25,29.1666667 C25,29.626875 25.373125,30 25.8333333,30 Z M26.6666667,25 L30,25 L30,28.3333333 L26.6666667,28.3333333 L26.6666667,25 Z" id="Shape"></path>
                <path d="M25.8333333,46.6666667 L30.8333333,46.6666667 C31.2935417,46.6666667 31.6666667,46.2935417 31.6666667,45.8333333 L31.6666667,40.8333333 C31.6666667,40.373125 31.2935417,40 30.8333333,40 L25.8333333,40 C25.373125,40 25,40.373125 25,40.8333333 L25,45.8333333 C25,46.2935417 25.373125,46.6666667 25.8333333,46.6666667 Z M26.6666667,41.6666667 L30,41.6666667 L30,45 L26.6666667,45 L26.6666667,41.6666667 Z" id="Shape"></path>
            </g>
        </g>
    </g>
</svg>