<?xml version="1.0" encoding="UTF-8"?>
<svg width="50px" height="50px" viewBox="0 0 50 50" version="1.1" xmlns="http://www.w3.org/2000/svg" xmlns:xlink="http://www.w3.org/1999/xlink">
    <!-- Generator: Sketch 49.3 (51167) - http://www.bohemiancoding.com/sketch -->
    <title>ecology</title>
    <desc>Created with Sketch.</desc>
    <defs></defs>
    <g id="Site-1-agosto" stroke="none" stroke-width="1" fill="none" fill-rule="evenodd">
        <g id="Oportuinidades-2" transform="translate(-214.000000, -1111.000000)" fill="#000000" fill-rule="nonzero">
            <g id="ecology" transform="translate(214.000000, 1111.000000)">
                <path d="M21.6466667,41.6666667 C21.4332292,37.4996875 19.1341667,33.7209375 15.5316667,31.6158333 L9.775,25.22 C9.00072917,24.3427083 7.79989583,23.97375 6.66666667,24.265 L6.66666667,13.3333333 C6.66666667,11.4923958 5.17427083,10 3.33333333,10 C1.49239583,10 0,11.4923958 0,13.3333333 L0,29.1058333 C0.000833333333,30.3809375 0.325729167,31.6348958 0.944166667,32.75 L8.33333333,46.0491667 L8.33333333,49.1666667 C8.33333333,49.626875 8.70645833,50 9.16666667,50 L20.8333333,50 C21.2935417,50 21.6666667,49.626875 21.6666667,49.1666667 L21.6666667,41.6666667 L21.6466667,41.6666667 Z M20,48.3333333 L10,48.3333333 L10,45.8333333 C10,45.6915625 9.96385417,45.5521875 9.895,45.4283333 L2.40083333,31.9391667 C1.92020833,31.0720833 1.66760417,30.0971875 1.66666667,29.1058333 L1.66666667,13.3333333 C1.66666667,12.4128125 2.4128125,11.6666667 3.33333333,11.6666667 C4.25385417,11.6666667 5,12.4128125 5,13.3333333 L5,25.2941667 C3.95729167,26.5059375 3.98125,28.3047917 5.05583333,29.4883333 L11.8833333,37 L13.1166667,35.8783333 L6.28916667,28.3675 C5.745,27.7689583 5.76697917,26.8484375 6.33916667,26.2766667 C6.93020833,25.6851042 7.88895833,25.6846875 8.48052083,26.2758333 C8.49979167,26.2951042 8.5184375,26.3147917 8.53666667,26.335 L14.3808333,32.8283333 C14.4552083,32.903125 14.5392708,32.9676042 14.6308333,33.02 C17.9473958,34.9203125 19.9951042,38.4484375 20,42.2708333 L20,48.3333333 Z" id="Shape"></path>
                <path d="M46.6666667,10 C44.8257292,10 43.3333333,11.4923958 43.3333333,13.3333333 L43.3333333,24.265 C43.0632292,24.1966667 42.7853125,24.1636458 42.5066667,24.1666667 C41.633125,24.1861458 40.806875,24.5672917 40.225,25.2191667 L34.47,31.6133333 C30.8626042,33.7148958 28.5615625,37.4969792 28.3533333,41.6666667 L28.3333333,41.6666667 L28.3333333,49.1666667 C28.3333333,49.626875 28.7064583,50 29.1666667,50 L40.8333333,50 C41.2935417,50 41.6666667,49.626875 41.6666667,49.1666667 L41.6666667,46.0475 L48.9641667,32.8208333 C49.6419792,31.6682292 49.9995833,30.3555208 50,29.0183333 L50,13.3333333 C50,11.4923958 48.5076042,10 46.6666667,10 Z M48.3333333,29.0183333 C48.3320833,30.0659375 48.0501042,31.0941667 47.5166667,31.9958333 L40.1,45.4308333 C40.0332292,45.5544792 39.9988542,45.6929167 40,45.8333333 L40,48.3333333 L30,48.3333333 L30,42.2708333 C30.0102083,38.4335417 32.0753125,34.8957292 35.4116667,33 C35.4892708,32.9559375 35.559375,32.8996875 35.6191667,32.8333333 L41.4633333,26.3333333 C42.0245833,25.7119792 42.9832292,25.6633333 43.6045833,26.2245833 C44.2259375,26.7858333 44.2745833,27.7444792 43.7133333,28.3658333 L36.8833333,35.8766667 L38.1166667,37 L44.9441667,29.49 C46.0197917,28.3061458 46.0436458,26.5061458 45,25.2941667 L45,13.3333333 C45,12.4128125 45.7461458,11.6666667 46.6666667,11.6666667 C47.5871875,11.6666667 48.3333333,12.4128125 48.3333333,13.3333333 L48.3333333,29.0183333 Z" id="Shape"></path>
                <path d="M35,20.8333333 L33.3333333,20.8333333 C30.3439583,20.8365625 27.5442708,22.2986458 25.8333333,24.75 L25.8333333,19.1666667 L26.6666667,19.1666667 C31.7267708,19.1607292 35.8273958,15.0601042 35.8333333,10 C35.8333333,9.53979167 35.4602083,9.16666667 35,9.16666667 L33.3333333,9.16666667 C30.3439583,9.16989583 27.5442708,10.6319792 25.8333333,13.0833333 L25.8333333,7.5 L26.6666667,7.5 C30.346875,7.49583333 33.3291667,4.51354167 33.3333333,0.833333333 C33.3333333,0.373125 32.9602083,0 32.5,0 L30.8333333,0 C28.4064583,0.00145833333 26.1721875,1.32166667 25,3.44666667 C23.8278125,1.32166667 21.5935417,0.00145833333 19.1666667,0 L17.5,0 C17.0397917,0 16.6666667,0.373125 16.6666667,0.833333333 C16.6708333,4.51354167 19.653125,7.49583333 23.3333333,7.5 L24.1666667,7.5 L24.1666667,13.0833333 C22.4557292,10.6319792 19.6560417,9.16989583 16.6666667,9.16666667 L15,9.16666667 C14.5397917,9.16666667 14.1666667,9.53979167 14.1666667,10 C14.1726042,15.0601042 18.2732292,19.1607292 23.3333333,19.1666667 L24.1666667,19.1666667 L24.1666667,24.75 C22.4557292,22.2986458 19.6560417,20.8365625 16.6666667,20.8333333 L15,20.8333333 C14.5397917,20.8333333 14.1666667,21.2064583 14.1666667,21.6666667 C14.1726042,26.7267708 18.2732292,30.8273958 23.3333333,30.8333333 L24.1666667,30.8333333 L24.1666667,37.5 L25.8333333,37.5 L25.8333333,30.8333333 L26.6666667,30.8333333 C31.7267708,30.8273958 35.8273958,26.7267708 35.8333333,21.6666667 C35.8333333,21.2064583 35.4602083,20.8333333 35,20.8333333 Z M33.3333333,10.8333333 L34.1208333,10.8333333 C33.6916667,14.6271875 30.4846875,17.4954167 26.6666667,17.5 L25.8791667,17.5 C26.3083333,13.7061458 29.5153125,10.8379167 33.3333333,10.8333333 Z M30.8333333,1.66666667 L31.5975,1.66666667 C31.1876042,4.07083333 29.1055208,5.8303125 26.6666667,5.83333333 L25.9025,5.83333333 C26.3123958,3.42916667 28.3944792,1.6696875 30.8333333,1.66666667 Z M23.3333333,5.83333333 C20.8944792,5.8303125 18.8123958,4.07083333 18.4025,1.66666667 L19.1666667,1.66666667 C21.6055208,1.6696875 23.6876042,3.42916667 24.0975,5.83333333 L23.3333333,5.83333333 Z M23.3333333,17.5 C19.5153125,17.4954167 16.3083333,14.6271875 15.8791667,10.8333333 L16.6666667,10.8333333 C20.4846875,10.8379167 23.6916667,13.7061458 24.1208333,17.5 L23.3333333,17.5 Z M23.3333333,29.1666667 C19.5153125,29.1620833 16.3083333,26.2938542 15.8791667,22.5 L16.6666667,22.5 C20.4846875,22.5045833 23.6916667,25.3728125 24.1208333,29.1666667 L23.3333333,29.1666667 Z M26.6666667,29.1666667 L25.8791667,29.1666667 C26.3083333,25.3728125 29.5153125,22.5045833 33.3333333,22.5 L34.1208333,22.5 C33.6916667,26.2938542 30.4846875,29.1620833 26.6666667,29.1666667 Z" id="Shape"></path>
            </g>
        </g>
    </g>
</svg>