<?xml version="1.0" encoding="UTF-8"?>
<svg width="27px" height="36px" viewBox="0 0 27 36" version="1.1" xmlns="http://www.w3.org/2000/svg" xmlns:xlink="http://www.w3.org/1999/xlink">
    <!-- Generator: Sketch 49.3 (51167) - http://www.bohemiancoding.com/sketch -->
    <title>flag</title>
    <desc>Created with Sketch.</desc>
    <defs></defs>
    <g id="Site-1-agosto" stroke="none" stroke-width="1" fill="none" fill-rule="evenodd">
        <g id="Oportunidades-4" transform="translate(-795.000000, -538.000000)" fill="#000000" fill-rule="nonzero" stroke="#000000" stroke-width="0.5">
            <g id="flag" transform="translate(796.000000, 539.000000)">
                <path d="M24.6426136,1.7875 C24.3818182,1.68238636 18.1886364,-0.742045455 13.3698864,1.81306818 C9.55170455,3.83977273 2.84943182,2.31931818 1.13636364,1.87954545 L1.13636364,0.568181818 C1.13636364,0.253977273 0.882386364,0 0.568181818,0 C0.253977273,0 0,0.253977273 0,0.568181818 L0,2.27272727 C0,2.28068182 0.00397727273,2.2875 0.00454545455,2.29545455 C0.00454545455,2.30227273 0,2.30795455 0,2.31477273 L0,18.75 L0,19.3602273 L0,33.5227273 C0,33.8369318 0.253977273,34.0909091 0.568181818,34.0909091 C0.882386364,34.0909091 1.13636364,33.8369318 1.13636364,33.5227273 L1.13636364,20.0994318 C2.42784091,20.4215909 5.24261364,21.0267045 8.16363636,21.0267045 C10.1846591,21.0267045 12.2545455,20.7363636 13.9028409,19.8625 C18.2505682,17.5551136 24.1619318,19.8647727 24.2210227,19.8880682 C24.3965909,19.9585227 24.5943182,19.9369318 24.7505682,19.8301136 C24.90625,19.725 25,19.5488636 25,19.3602273 L25,2.31477273 C25,2.08238636 24.8585227,1.87386364 24.6426136,1.7875 Z M23.8636364,18.5596591 C22.0113636,17.9698864 17.2465909,16.8005682 13.3698864,18.8579545 C9.55227273,20.8840909 2.85227273,19.3647727 1.13636364,18.925 L1.13636364,18.75 L1.13636364,3.05397727 C3.32556818,3.6 9.87556818,4.95340909 13.9028409,2.81704545 C17.6335227,0.838068182 22.5153409,2.25738636 23.8636364,2.71420455 L23.8636364,18.5596591 Z" id="Shape"></path>
            </g>
        </g>
    </g>
</svg>