<?xml version="1.0" encoding="UTF-8"?>
<svg width="50px" height="50px" viewBox="0 0 50 50" version="1.1" xmlns="http://www.w3.org/2000/svg" xmlns:xlink="http://www.w3.org/1999/xlink">
    <!-- Generator: Sketch 49.3 (51167) - http://www.bohemiancoding.com/sketch -->
    <title>hook</title>
    <desc>Created with Sketch.</desc>
    <defs></defs>
    <g id="Site-1-agosto" stroke="none" stroke-width="1" fill="none" fill-rule="evenodd">
        <g id="Oportunidades" transform="translate(-492.000000, -1111.000000)" fill="#000000" fill-rule="nonzero">
            <g id="hook" transform="translate(492.000000, 1111.000000)">
                <polygon id="Shape" points="14.1666667 28.3333333 15.8333333 28.3333333 15.8333333 30 14.1666667 30"></polygon>
                <polygon id="Shape" points="17.5 28.3333333 19.1666667 28.3333333 19.1666667 30 17.5 30"></polygon>
                <polygon id="Shape" points="20.8333333 28.3333333 22.5 28.3333333 22.5 30 20.8333333 30"></polygon>
                <polygon id="Shape" points="14.1666667 31.6666667 15.8333333 31.6666667 15.8333333 33.3333333 14.1666667 33.3333333"></polygon>
                <polygon id="Shape" points="17.5 31.6666667 19.1666667 31.6666667 19.1666667 33.3333333 17.5 33.3333333"></polygon>
                <polygon id="Shape" points="20.8333333 31.6666667 22.5 31.6666667 22.5 33.3333333 20.8333333 33.3333333"></polygon>
                <polygon id="Shape" points="24.1666667 31.6666667 25.8333333 31.6666667 25.8333333 33.3333333 24.1666667 33.3333333"></polygon>
                <polygon id="Shape" points="27.5 31.6666667 29.1666667 31.6666667 29.1666667 33.3333333 27.5 33.3333333"></polygon>
                <polygon id="Shape" points="14.1666667 35 15.8333333 35 15.8333333 36.6666667 14.1666667 36.6666667"></polygon>
                <polygon id="Shape" points="17.5 35 19.1666667 35 19.1666667 36.6666667 17.5 36.6666667"></polygon>
                <polygon id="Shape" points="20.8333333 35 22.5 35 22.5 36.6666667 20.8333333 36.6666667"></polygon>
                <polygon id="Shape" points="24.1666667 35 25.8333333 35 25.8333333 36.6666667 24.1666667 36.6666667"></polygon>
                <polygon id="Shape" points="27.5 35 29.1666667 35 29.1666667 36.6666667 27.5 36.6666667"></polygon>
                <polygon id="Shape" points="14.1666667 38.3333333 15.8333333 38.3333333 15.8333333 40 14.1666667 40"></polygon>
                <polygon id="Shape" points="17.5 38.3333333 19.1666667 38.3333333 19.1666667 40 17.5 40"></polygon>
                <polygon id="Shape" points="20.8333333 38.3333333 22.5 38.3333333 22.5 40 20.8333333 40"></polygon>
                <polygon id="Shape" points="24.1666667 38.3333333 25.8333333 38.3333333 25.8333333 40 24.1666667 40"></polygon>
                <polygon id="Shape" points="27.5 38.3333333 29.1666667 38.3333333 29.1666667 40 27.5 40"></polygon>
                <polygon id="Shape" points="14.1666667 41.6666667 15.8333333 41.6666667 15.8333333 43.3333333 14.1666667 43.3333333"></polygon>
                <polygon id="Shape" points="17.5 41.6666667 19.1666667 41.6666667 19.1666667 43.3333333 17.5 43.3333333"></polygon>
                <polygon id="Shape" points="20.8333333 41.6666667 22.5 41.6666667 22.5 43.3333333 20.8333333 43.3333333"></polygon>
                <polygon id="Shape" points="24.1666667 41.6666667 25.8333333 41.6666667 25.8333333 43.3333333 24.1666667 43.3333333"></polygon>
                <polygon id="Shape" points="27.5 41.6666667 29.1666667 41.6666667 29.1666667 43.3333333 27.5 43.3333333"></polygon>
                <polygon id="Shape" points="14.1666667 45 15.8333333 45 15.8333333 46.6666667 14.1666667 46.6666667"></polygon>
                <polygon id="Shape" points="17.5 45 19.1666667 45 19.1666667 46.6666667 17.5 46.6666667"></polygon>
                <polygon id="Shape" points="20.8333333 45 22.5 45 22.5 46.6666667 20.8333333 46.6666667"></polygon>
                <polygon id="Shape" points="24.1666667 45 25.8333333 45 25.8333333 46.6666667 24.1666667 46.6666667"></polygon>
                <polygon id="Shape" points="27.5 45 29.1666667 45 29.1666667 46.6666667 27.5 46.6666667"></polygon>
                <path d="M49.1666667,2.5 L43.3333333,2.5 L43.3333333,0.833333333 C43.3333333,0.373128229 42.9602051,0 42.5,0 L34.1666667,0 C33.7064616,0 33.3333333,0.373128229 33.3333333,0.833333333 L33.3333333,2.5 L0.833333333,2.5 C0.373128229,2.5 2.31296463e-16,2.87312823 2.31296463e-16,3.33333333 L2.31296463e-16,6.66666667 C2.31296463e-16,7.12727865 0.373128229,7.5 0.833333333,7.5 L3.33333333,7.5 L3.33333333,23.3333333 C3.33333333,23.7939453 3.70646156,24.1666667 4.16666667,24.1666667 C4.62687177,24.1666667 5,24.5397949 5,25 C5,25.460612 4.62687177,25.8333333 4.16666667,25.8333333 C3.70646156,25.8333333 3.33333333,25.460612 3.33333333,25 L1.66666667,25 C1.66910813,25.6099447 1.89575198,26.1979167 2.30428063,26.6512044 L0.166829375,29.5003255 L0.177408854,29.5084635 C0.0659179167,29.6484375 0.00366210417,29.8213704 0,30 L0,33.3333333 C0,33.5546875 0.087890625,33.766276 0.244140625,33.922526 L1.91080729,35.5891927 C2.06705729,35.7454427 2.27905271,35.8333333 2.5,35.8333333 L5.83333333,35.8333333 C6.05428063,35.8333333 6.26627604,35.7454427 6.42252604,35.5891927 L8.08919271,33.922526 C8.24544271,33.766276 8.33333333,33.5546875 8.33333333,33.3333333 L8.33333333,30 C8.32967125,29.8213704 8.26741542,29.6484375 8.15592448,29.5084635 L8.16650396,29.5003255 L6.02905271,26.6512044 C6.58569333,26.0327148 6.79565427,25.176595 6.58854167,24.370931 C6.38183594,23.5652669 5.78531896,22.9166667 5,22.6428223 L5,7.5 L33.3333333,7.5 L33.3333333,8.33333333 C33.3333333,8.79394531 33.7064616,9.16666667 34.1666667,9.16666667 L35.8333333,9.16666667 L35.8333333,48.3333333 L32.5,48.3333333 L32.5,15 L30.8333333,15 L30.8333333,18.3333333 L25.8333333,18.3333333 L25.8333333,16.6666667 L24.1666667,16.6666667 L24.1666667,18.3333333 L19.1666667,18.3333333 L19.1666667,17.5 L17.5,17.5 L17.5,18.3333333 L12.5,18.3333333 L12.5,15.8333333 L23.3333333,15.8333333 L23.3333333,14.1666667 L12.5,14.1666667 L12.5,10.8333333 L10.8333333,10.8333333 L10.8333333,48.3333333 L9.51171875,48.3333333 L5.58919271,44.4112142 C5.26367188,44.0856933 4.73632812,44.0856933 4.41080729,44.4112142 L0.48828125,48.3333333 L2.31296463e-16,48.3333333 L0,50 L50.0004109,50 L50,48.3333333 L49.3501791,48.3333333 C49.9365234,47.693278 50.1448568,46.7923991 49.8990885,45.9594727 C49.6537272,45.1269531 48.9900717,44.4832356 48.1498209,44.2635092 C48.573405,43.2189942 48.2462565,42.0206706 47.3502604,41.3366699 C46.4546713,40.6526693 45.2119954,40.6526693 44.3164063,41.3366699 C43.4204102,42.0206706 43.0932617,43.2189942 43.5168457,44.2635092 C42.676595,44.4832356 42.0129395,45.1269531 41.7675781,45.9594727 C41.5218099,46.7923991 41.7301432,47.693278 42.3164876,48.3333333 L40.8333333,48.3333333 L40.8333333,9.16666667 L42.5,9.16666667 C42.9602051,9.16666667 43.3333333,8.79394531 43.3333333,8.33333333 L43.3333333,7.5 L49.1666667,7.5 C49.6268718,7.5 50,7.12727865 50,6.66666667 L50,3.33333333 C50,2.87312823 49.6268718,2.5 49.1666667,2.5 Z M4.58333333,27.5 L5.83333333,29.1666667 L2.5,29.1666667 L3.75,27.5 L4.58333333,27.5 Z M6.66666667,32.9886881 L5.48828125,34.1666667 L2.84505208,34.1666667 L1.66666667,32.9886881 L1.66666667,30.8333333 L6.66666667,30.8333333 L6.66666667,32.9886881 Z M45.583496,4.16666667 L43.3333333,5.66691083 L43.3333333,4.16666667 L45.583496,4.16666667 Z M35,1.66666667 L38.3333333,1.66666667 L38.3333333,5 L35,5 L35,1.66666667 Z M12.5,4.33349604 L14.7501627,5.83333333 L10.2498373,5.83333333 L12.5,4.33349604 Z M7.5,5.66691083 L5.24983729,4.16666667 L9.75016271,4.16666667 L7.5,5.66691083 Z M15.2498373,4.16666667 L19.7501627,4.16666667 L17.5,5.66691083 L15.2498373,4.16666667 Z M22.5,4.33349604 L24.7501627,5.83333333 L20.2498373,5.83333333 L22.5,4.33349604 Z M25.2498373,4.16666667 L29.7501627,4.16666667 L27.5,5.66691083 L25.2498373,4.16666667 Z M1.66666667,4.16666667 L2.25016271,4.16666667 L4.75016271,5.83333333 L1.66666667,5.83333333 L1.66666667,4.16666667 Z M30.2498373,5.83333333 L32.7498373,4.16666667 L33.3333333,4.16666667 L33.3333333,5.83333333 L30.2498373,5.83333333 Z M39.1666667,45.583496 L37.6668294,43.3333333 L39.1666667,41.0835775 L39.1666667,45.583496 Z M39.1666667,25.583496 L37.6668294,23.3333333 L39.1666667,21.0835775 L39.1666667,25.583496 Z M37.5,26.0835775 L38.9998373,28.3333333 L37.5,30.583496 L37.5,26.0835775 Z M37.5,20.583496 L37.5,16.0835775 L38.9998373,18.3333333 L37.5,20.583496 Z M37.5,36.0835775 L38.9998373,38.3333333 L37.5,40.583496 L37.5,36.0835775 Z M39.1666667,35.5786133 L37.6668294,33.3333333 L39.1666667,31.0835775 L39.1666667,35.5786133 Z M37.6668294,13.3333333 L39.1666667,11.0835775 L39.1666667,15.583496 L37.6668294,13.3333333 Z M37.5,10.583496 L37.5,9.16666667 L38.4431967,9.16666667 L37.5,10.583496 Z M30.8333333,20 L30.8333333,28.3333333 L25.8333333,28.3333333 L25.8333333,20 L30.8333333,20 Z M24.1666667,20 L24.1666667,27.166748 L22.2501627,25.2726238 C22.0947266,25.119222 21.8851725,25.0325521 21.6666667,25.0317383 L19.1666667,25.0317383 L19.1666667,20 L24.1666667,20 Z M17.5,20 L17.5,21.3891602 L12.5,21.3891602 L12.5,20 L17.5,20 Z M5,46.1783854 L7.15494792,48.3333333 L2.84505208,48.3333333 L5,46.1783854 Z M12.5,48.3333333 L12.5,23.0558269 L17.5,23.0558269 L17.5,25.8683269 C17.5,26.3289388 17.8731282,26.7016602 18.3333333,26.7016602 L21.324056,26.7016602 L24.416504,29.7595215 C24.5719401,29.9129231 24.7814942,29.9995931 25,30 L30.8333333,30 L30.8333333,48.3333333 L12.5,48.3333333 Z M37.5,46.0835775 L38.9998373,48.3333333 L37.5,48.3333333 L37.5,46.0835775 Z M47.5,47.5 C47.0397949,47.5 46.6666667,47.1272786 46.6666667,46.6666667 C46.6666667,46.2064616 47.0397949,45.8333333 47.5,45.8333333 C47.9602051,45.8333333 48.3333333,46.2064616 48.3333333,46.6666667 C48.3333333,47.1272786 47.9602051,47.5 47.5,47.5 Z M45.8333333,42.5 C46.2935384,42.5 46.6666667,42.8731282 46.6666667,43.3333333 C46.6666667,43.7939453 46.2935384,44.1666667 45.8333333,44.1666667 C45.3731282,44.1666667 45,43.7939453 45,43.3333333 C45,42.8731282 45.3731282,42.5 45.8333333,42.5 Z M44.1666667,45.8333333 C44.6268718,45.8333333 45,46.2064616 45,46.6666667 C45,47.1272786 44.6268718,47.5 44.1666667,47.5 C43.7064616,47.5 43.3333333,47.1272786 43.3333333,46.6666667 C43.3333333,46.2064616 43.7064616,45.8333333 44.1666667,45.8333333 Z M41.6666667,7.5 L35,7.5 L35,6.66666667 L39.1666667,6.66666667 C39.6268718,6.66666667 40,6.29394531 40,5.83333333 L40,1.66666667 L41.6666667,1.66666667 L41.6666667,7.5 Z M46.0831706,5.83333333 L48.3333333,4.33349604 L48.3333333,5.83333333 L46.0831706,5.83333333 Z" id="Shape"></path>
            </g>
        </g>
    </g>
</svg>