<?xml version="1.0" encoding="UTF-8"?>
<svg width="51px" height="50px" viewBox="0 0 51 50" version="1.1" xmlns="http://www.w3.org/2000/svg" xmlns:xlink="http://www.w3.org/1999/xlink">
    <!-- Generator: Sketch 49.3 (51167) - http://www.bohemiancoding.com/sketch -->
    <title>horseshoe</title>
    <desc>Created with Sketch.</desc>
    <defs></defs>
    <g id="Site-1-agosto" stroke="none" stroke-width="1" fill="none" fill-rule="evenodd">
        <g id="Oportuinidades-2" transform="translate(-770.000000, -1111.000000)" fill="#000000" fill-rule="nonzero">
            <g id="horseshoe" transform="translate(770.000000, 1111.000000)">
                <path d="M51.00316,7.90618648 L46.0901772,0.0444613821 L38.7147485,4.54657327 C37.0835715,5.5417937 36.0708841,7.34605244 36.0708841,9.25670102 C36.0708841,10.2157965 36.3217734,11.1621888 36.7985423,11.9946488 L38.5333302,15.0295351 L38.5845401,15.1093273 C40.6627128,17.9298463 41.7619411,21.2580984 41.7619411,24.7344227 C41.7619411,33.7005367 34.4674955,40.9945853 25.5017785,40.9945853 C16.5356644,40.9945853 9.24161585,33.7005367 9.24161585,24.7344227 C9.24161585,21.2580984 10.3408441,17.9298463 12.4194137,15.1093273 L14.2058085,11.9946488 C14.6813866,11.1621888 14.9326728,10.2157965 14.9326728,9.25670102 C14.9326728,7.34605244 13.9195884,5.5417937 12.2896024,4.54657327 L4.91298272,0.0444613821 L-5.68434189e-14,7.90618648 L4.48226311,10.8362709 C1.74233039,14.9672098 0.298526423,19.7547479 0.298526423,24.7344227 C0.298526423,38.6321773 11.6048177,49.9376747 25.5017785,49.9376747 C39.3983423,49.9376747 50.7050305,38.6321773 50.7050305,24.7344227 C50.7050305,19.7547479 49.2608295,14.9672098 46.5212938,10.8362709 L51.00316,7.90618648 Z M49.0790142,24.7344227 C49.0790142,37.7346132 38.502366,48.3116584 25.5017785,48.3116584 C12.5007939,48.3116584 1.92454268,37.7346132 1.92454268,24.7344227 C1.92454268,19.8119125 3.43265691,15.0914634 6.28533089,11.0823964 L6.77559705,10.393245 L2.22267215,7.41671433 L5.43977073,2.27030935 L11.4424543,5.93440356 C12.5917016,6.63625823 13.3066565,7.9093623 13.3066565,9.25670102 C13.3066565,9.93275213 13.1292079,10.6004669 12.7933658,11.1883892 L11.0819995,14.1831809 C8.813675,17.2768197 7.61559959,20.923844 7.61559959,24.7344227 C7.61559959,34.5973069 15.6388942,42.6206015 25.5017785,42.6206015 C35.3642658,42.6206015 43.3879573,34.5973069 43.3879573,24.7344227 C43.3879573,20.923844 42.1894849,17.2768197 39.9211605,14.182387 L38.2097942,11.1875953 C37.873952,10.6004669 37.6969004,9.93275213 37.6969004,9.25670102 C37.6969004,7.9093623 38.4114583,6.63625823 39.5611026,5.93440356 L45.5633892,2.27030935 L48.7804878,7.41671433 L44.2275629,10.393245 L44.7178291,11.0823964 C47.5709,15.0914634 49.0790142,19.8119125 49.0790142,24.7344227 Z" id="Shape"></path>
                <path d="M40.9667968,36.6322091 L42.254589,37.6246506 C42.9131733,36.7703569 43.5098292,35.8596926 44.0282806,34.919255 L42.6039285,34.1344321 C42.1259686,35.0030171 41.574965,35.8426226 40.9667968,36.6322091 Z" id="Shape"></path>
                <path d="M42.3212811,14.8461319 C42.8278233,15.7051892 43.2700553,16.6067232 43.6372586,17.527312 L45.1469608,16.9254954 C44.7495872,15.9278932 44.2700394,14.9501397 43.7218146,14.0208175 L42.3212811,14.8461319 Z" id="Shape"></path>
                <path d="M44.0822694,30.7101118 L45.6300813,31.2067296 C45.958381,30.1833238 46.2112551,29.1249841 46.3795732,28.0598958 L44.7730087,27.8062277 C44.6185849,28.788348 44.3863536,29.7653074 44.0822694,30.7101118 Z" id="Shape"></path>
                <path d="M45.0024613,24.0778233 L46.6276835,24.0238345 C46.5919557,22.945249 46.4732597,21.8622967 46.2747713,20.8075299 L44.6765435,21.1076442 C44.8603436,22.0818248 44.9699091,23.081015 45.0024613,24.0778233 Z" id="Shape"></path>
                <path d="M6.96416098,34.8986122 C7.48221545,35.8402408 8.07807734,36.7516991 8.73507368,37.6067867 L10.0244538,36.615933 C9.41707947,35.8255526 8.86647297,34.985153 8.38930701,34.1157743 L6.96416098,34.8986122 Z" id="Shape"></path>
                <path d="M6.33018923,21.0889863 L4.73235833,20.7856961 C4.53267907,21.84086 4.41199817,22.9230183 4.37627033,24.0012068 L6.00149268,24.0563866 C6.03483862,23.0603722 6.14559512,22.062373 6.33018923,21.0889863 Z" id="Shape"></path>
                <path d="M4.61961697,28.0368711 C4.78634715,29.1011655 5.03723638,30.1606961 5.36513913,31.1864837 L6.91374492,30.6914539 C6.61045478,29.7450616 6.37901738,28.7669112 6.2253874,27.7847911 L4.61961697,28.0368711 Z" id="Shape"></path>
                <path d="M8.69180325,14.8278709 L7.29206362,14.0005716 C6.74304492,14.927909 6.26270325,15.9052654 5.86334472,16.9036617 L7.37304685,17.5070662 C7.74144116,16.5864774 8.18526108,15.6841495 8.69180325,14.8278709 Z" id="Shape"></path>
                <path d="M25.5017785,28.7994633 C24.6050082,28.7994633 23.8757622,28.0702173 23.8757622,27.1734471 L22.2497459,27.1734471 C22.2497459,28.685134 23.2902216,29.9467257 24.6887703,30.3103563 L24.6887703,32.0514958 L26.3147866,32.0514958 L26.3147866,30.3103563 C27.7129382,29.9467257 28.753811,28.685134 28.753811,27.1734471 C28.753811,25.3799066 27.2953189,23.9214145 25.5017785,23.9214145 C24.6050082,23.9214145 23.8757622,23.1921685 23.8757622,22.2953983 C23.8757622,21.398628 24.6050082,20.669382 25.5017785,20.669382 C26.3985487,20.669382 27.1277947,21.398628 27.1277947,22.2953983 L28.753811,22.2953983 C28.753811,20.7841082 27.7129382,19.5225165 26.3147866,19.158886 L26.3147866,17.4173495 L24.6887703,17.4173495 L24.6887703,19.158886 C23.2902216,19.5225165 22.2497459,20.7841082 22.2497459,22.2953983 C22.2497459,24.0889386 23.708238,25.5474308 25.5017785,25.5474308 C26.3985487,25.5474308 27.1277947,26.2766768 27.1277947,27.1734471 C27.1277947,28.0702173 26.3985487,28.7994633 25.5017785,28.7994633 Z" id="Shape"></path>
                <path d="M25.5017785,38.5555609 C33.1229358,38.5555609 39.3229167,32.3555799 39.3229167,24.7344227 C39.3229167,17.1132653 33.1229358,10.9132845 25.5017785,10.9132845 C17.8806211,10.9132845 11.6806402,17.1132653 11.6806402,24.7344227 C11.6806402,32.3555799 17.8806211,38.5555609 25.5017785,38.5555609 Z M13.3479421,25.5474308 L14.9739583,25.5474308 C15.370538,30.7263878 19.5098132,34.8652662 24.6887703,35.2622428 L24.6887703,36.888259 C18.613837,36.4849308 13.7512703,31.623158 13.3479421,25.5474308 Z M25.5017785,15.7913332 C30.4326251,15.7913332 34.4448679,19.803576 34.4448679,24.7344227 C34.4448679,29.6652693 30.4326251,33.6775121 25.5017785,33.6775121 C20.5705348,33.6775121 16.558689,29.6652693 16.558689,24.7344227 C16.558689,19.803576 20.5705348,15.7913332 25.5017785,15.7913332 Z M26.3147866,36.888259 L26.3147866,35.2622428 C31.4933466,34.8652662 35.632622,30.7263878 36.0292016,25.5474308 L37.6552179,25.5474308 C37.2518896,31.623158 32.389323,36.4849308 26.3147866,36.888259 Z M37.6552179,23.9214145 L36.0292016,23.9214145 C35.632622,18.7428545 31.4933466,14.6035792 26.3147866,14.2069995 L26.3147866,12.5809832 C32.389323,12.9843115 37.2518896,17.8460842 37.6552179,23.9214145 Z M24.6887703,12.5809832 L24.6887703,14.2069995 C19.5098132,14.6035792 15.370538,18.7428545 14.9739583,23.9214145 L13.3479421,23.9214145 C13.7512703,17.8460842 18.613837,12.9843115 24.6887703,12.5809832 Z" id="Shape"></path>
            </g>
        </g>
    </g>
</svg>