<?xml version="1.0" encoding="UTF-8"?>
<svg width="45px" height="41px" viewBox="0 0 45 41" version="1.1" xmlns="http://www.w3.org/2000/svg" xmlns:xlink="http://www.w3.org/1999/xlink">
    <!-- Generator: Sketch 49.3 (51167) - http://www.bohemiancoding.com/sketch -->
    <title>suitcase copy</title>
    <desc>Created with Sketch.</desc>
    <defs></defs>
    <g id="Site-1-agosto" stroke="none" stroke-width="1" fill="none" fill-rule="evenodd">
        <g id="Proteção-3---Contexto-Empresarial" transform="translate(-104.000000, -1254.000000)" fill="#000000" fill-rule="nonzero">
            <g id="suitcase-copy" transform="translate(104.000000, 1254.000000)">
                <path d="M42.75,6.83333333 L33,6.83333333 L33,3.7962963 C32.9974365,1.70054798 31.3201904,0.00259512917 29.25,0 L15.75,0 C13.6798096,0.00259512917 12.0025635,1.70054798 12,3.7962963 L12,6.83333333 L2.25,6.83333333 C1.00744631,6.83333333 0,7.85321725 0,9.11111111 L0,26.0120443 C0.0047607375,26.9752061 0.604248,27.8319679 1.5,28.155617 L1.5,38.7222222 C1.5,39.9801161 2.50744631,41 3.75,41 L41.25,41 C42.4925537,41 43.5,39.9801161 43.5,38.7222222 L43.5,28.1563585 C44.395752,27.8323386 44.9956055,26.9752061 45,26.0120443 L45,9.11111111 C45,7.85321725 43.9925537,6.83333333 42.75,6.83333333 Z M13.5,3.7962963 C13.5,2.53840244 14.5074463,1.51851852 15.75,1.51851852 L29.25,1.51851852 C30.4925537,1.51851852 31.5,2.53840244 31.5,3.7962963 L31.5,6.83333333 L30,6.83333333 L30,3.7962963 C30,3.37699831 29.6641846,3.03703704 29.25,3.03703704 L15.75,3.03703704 C15.3358154,3.03703704 15,3.37699831 15,3.7962963 L15,6.83333333 L13.5,6.83333333 L13.5,3.7962963 Z M28.5,6.83333333 L16.5,6.83333333 L16.5,4.55555556 L28.5,4.55555556 L28.5,6.83333333 Z M42,38.7222222 C42,39.1415202 41.6641846,39.4814815 41.25,39.4814815 L3.75,39.4814815 C3.33581541,39.4814815 3,39.1415202 3,38.7222222 L3,28.4166124 L19.5,30.7203414 L19.5,32.6481481 C19.5,33.906042 20.5074463,34.9259259 21.75,34.9259259 L23.25,34.9259259 C24.4925537,34.9259259 25.5,33.906042 25.5,32.6481481 L25.5,30.7203414 L42,28.4166124 L42,38.7222222 Z M24,32.6481481 C24,33.0674461 23.6641846,33.4074074 23.25,33.4074074 L21.75,33.4074074 C21.3358154,33.4074074 21,33.0674461 21,32.6481481 L21,28.0925926 C21,27.6732946 21.3358154,27.3333333 21.75,27.3333333 L23.25,27.3333333 C23.6641846,27.3333333 24,27.6732946 24,28.0925926 L24,32.6481481 Z M43.5,26.0120443 C43.5003662,26.3905617 43.2253417,26.7116157 42.8551026,26.7646303 L42.6470947,26.7935475 L25.5,29.1873643 L25.5,28.0925926 C25.5,26.8346987 24.4925537,25.8148148 23.25,25.8148148 L21.75,25.8148148 C20.5074463,25.8148148 19.5,26.8346987 19.5,28.0925926 L19.5,29.1873643 L2.14562991,26.7646303 C1.77539062,26.7119864 1.49963381,26.3909324 1.5,26.0120443 L1.5,9.11111111 C1.5,8.69181313 1.83581541,8.35185185 2.25,8.35185185 L42.75,8.35185185 C43.1641846,8.35185185 43.5,8.69181313 43.5,9.11111111 L43.5,26.0120443 Z" id="Shape"></path>
            </g>
        </g>
    </g>
</svg>