<?xml version="1.0" encoding="UTF-8"?>
<svg width="44px" height="50px" viewBox="0 0 44 50" version="1.1" xmlns="http://www.w3.org/2000/svg" xmlns:xlink="http://www.w3.org/1999/xlink">
    <!-- Generator: Sketch 49.3 (51167) - http://www.bohemiancoding.com/sketch -->
    <title>umbrella</title>
    <desc>Created with Sketch.</desc>
    <defs></defs>
    <g id="Site-1-agosto" stroke="none" stroke-width="1" fill="none" fill-rule="evenodd">
        <g id="Homepage" transform="translate(-282.000000, -1120.000000)" fill="#000000" fill-rule="nonzero">
            <g id="umbrella" transform="translate(282.000000, 1120.000000)">
                <path d="M43.95072,23.6328125 C43.2329333,12.6689453 34.4620711,3.89228516 23.4666667,3.17421875 L23.4666667,0 L20.5333333,0 L20.5333333,3.17421875 C9.26219556,3.91035156 0.290106667,13.1279297 0.00704,24.5392578 L0,24.5472656 L0,28.0273438 L2.93333333,28.0273438 L2.93333333,25.6867187 C3.92137778,24.7591797 5.23111111,24.2361328 6.6,24.2361328 C7.96928,24.2361328 9.27852444,24.7604492 10.2666667,25.6883789 L10.2666667,28.0273438 L13.2,28.0273438 L13.2,25.6882812 C14.1881422,24.7603516 15.4973867,24.2360352 16.8666667,24.2360352 C18.2359467,24.2360352 19.5451911,24.7604492 20.5333333,25.6882812 L20.5333333,44.140625 C20.5333333,47.3714844 23.16512,50 26.4,50 C29.63488,50 32.2666667,47.3714844 32.2666667,44.140625 L32.2666667,41.2109375 L29.3333333,41.2109375 L29.3333333,44.140625 C29.3333333,45.7560547 28.01744,47.0703125 26.4,47.0703125 C24.78256,47.0703125 23.4666667,45.7560547 23.4666667,44.140625 L23.4666667,25.6882812 C24.4548089,24.7603516 25.7640533,24.2360352 27.1333333,24.2360352 C28.5026133,24.2360352 29.8118578,24.7604492 30.8,25.6882812 L30.8,28.0273438 L33.7333333,28.0273438 L33.7333333,25.6882812 C34.7214756,24.7603516 36.03072,24.2360352 37.4,24.2360352 C38.76928,24.2360352 40.0785244,24.7604492 41.0666667,25.6882812 L41.0666667,28.0273438 L44,28.0273438 L44,23.6328125 L43.95072,23.6328125 Z M6.6,21.3063477 C5.40662222,21.3063477 4.24228444,21.5632812 3.17953778,22.0442383 C4.28902222,15.1985352 9.06439111,9.56386719 15.4230756,7.22265625 C12.52944,11.2785156 11.0981689,17.3371094 10.5659644,22.3160156 C9.36241778,21.6609375 8.00135111,21.3063477 6.6,21.3063477 C6.59990222,21.3063477 6.60009778,21.3063477 6.6,21.3063477 Z M16.8666667,21.3063477 C15.7134756,21.3063477 14.5878578,21.547168 13.5544444,21.9972656 C14.5102222,14.1079102 17.3309156,7.88945312 20.5333333,6.39736328 L20.5333333,22.1607422 C19.4054667,21.6050781 18.1530311,21.3063477 16.8666667,21.3063477 Z M23.4666667,22.1607422 L23.4666667,6.40224609 C27.6872444,8.38496094 29.8309244,16.8737305 30.44624,21.9975586 C29.4126311,21.5472656 28.2868178,21.3064453 27.1333333,21.3064453 C25.8469689,21.3063477 24.5945333,21.6050781 23.4666667,22.1607422 Z M33.4343289,22.3158203 C32.9043733,17.3582031 31.4779911,11.2897461 28.5765333,7.22255859 C34.9354133,9.56367187 39.71088,15.1984375 40.8203644,22.0442383 C39.7577156,21.5633789 38.5933778,21.3063477 37.4,21.3063477 C35.9988444,21.3063477 34.6378756,21.6608398 33.4343289,22.3158203 Z" id="Shape"></path>
            </g>
        </g>
    </g>
</svg>